<?xml version="1.0" encoding="UTF-8" standalone="no"?>
<!-- Created with Inkscape (http://www.inkscape.org/) -->

<svg
   xmlns:dc="http://purl.org/dc/elements/1.1/"
   xmlns:cc="http://creativecommons.org/ns#"
   xmlns:rdf="http://www.w3.org/1999/02/22-rdf-syntax-ns#"
   xmlns:svg="http://www.w3.org/2000/svg"
   xmlns="http://www.w3.org/2000/svg"
   xmlns:sodipodi="http://sodipodi.sourceforge.net/DTD/sodipodi-0.dtd"
   xmlns:inkscape="http://www.inkscape.org/namespaces/inkscape"
   width="70.26812"
   height="57.572208"
   id="svg2"
   version="1.1"
   inkscape:version="0.92.1 r15371"
   sodipodi:docname="logo-white.svg"
   inkscape:export-filename="/home/usr3/Insync/info@yveq.com/img/drawing-1.png"
   inkscape:export-xdpi="300.01154"
   inkscape:export-ydpi="300.01154">
  <defs
     id="defs4" />
  <sodipodi:namedview
     id="base"
     pagecolor="#ffffff"
     bordercolor="#666666"
     borderopacity="1.0"
     inkscape:pageopacity="0.0"
     inkscape:pageshadow="2"
     inkscape:zoom="9.7683271"
     inkscape:cx="11.94702"
     inkscape:cy="27.537947"
     inkscape:document-units="px"
     inkscape:current-layer="layer1"
     showgrid="false"
     showguides="true"
     inkscape:guide-bbox="true"
     inkscape:window-width="1366"
     inkscape:window-height="725"
     inkscape:window-x="0"
     inkscape:window-y="0"
     inkscape:window-maximized="1"
     fit-margin-top="0"
     fit-margin-left="0"
     fit-margin-right="0"
     fit-margin-bottom="0" />
  <metadata
     id="metadata7">
    <rdf:RDF>
      <cc:Work
         rdf:about="">
        <dc:format>image/svg+xml</dc:format>
        <dc:type
           rdf:resource="http://purl.org/dc/dcmitype/StillImage" />
        <dc:title />
      </cc:Work>
    </rdf:RDF>
  </metadata>
  <g
     inkscape:label="Layer 1"
     inkscape:groupmode="layer"
     id="layer1"
     transform="translate(-206.3302,-102.82315)">
    <path
       inkscape:connector-curvature="0"
       id="path22"
       style="fill:#ffffff;fill-opacity:1;fill-rule:nonzero;stroke:#cccccc;stroke-width:1.06666672;stroke-miterlimit:1;stroke-dasharray:none"
       d="m 225.15399,119.76827 -2.71668,1.36803 0.3658,0.3832 0.26119,-0.1096 v 0.54759 l 1.64324,0.11062 0.0564,-0.54619 -1.17721,-0.0571 1.41053,-1.03988 h 2.19419 l 1.46272,0.98495 -1.61941,0.0549 v 0.65642 l 1.72378,0.16452 0.2613,-0.82094 0.67917,-0.0549 0.0523,-0.32828 -2.61218,-1.20401 -1.9852,-0.10934" />
    <path
       inkscape:connector-curvature="0"
       id="path24"
       style="fill:#ffffff;stroke:#cccccc;stroke-width:0.23280364;stroke-linecap:butt;stroke-linejoin:miter;stroke-miterlimit:1;stroke-dasharray:none;stroke-opacity:1"
       d="m 225.15399,119.76827 -2.71668,1.36803 0.3658,0.3832 0.26119,-0.1096 v 0.54759 l 1.64324,0.11062 0.0564,-0.54619 -1.17721,-0.0571 1.41053,-1.03988 h 2.19419 l 1.46272,0.98495 -1.61941,0.0549 v 0.65642 l 1.72378,0.16452 0.2613,-0.82094 0.67917,-0.0549 0.0523,-0.32828 -2.61218,-1.20401 -1.9852,-0.10934 z" />
    <path
       inkscape:connector-curvature="0"
       id="path26"
       style="fill:#ffffff;fill-opacity:1;fill-rule:nonzero;stroke:#cccccc;stroke-width:1.06666672;stroke-miterlimit:1;stroke-dasharray:none"
       d="m 254.1747,119.50142 -2.71656,1.36815 0.36555,0.38308 0.26118,-0.10934 v 0.54721 l 1.51491,0.10947 v -0.54734 l -0.99242,-0.0547 1.41065,-1.04 h 2.19406 l 1.46284,0.98533 -1.61927,0.0546 v 0.65681 l 1.72341,0.16401 0.36604,-0.98522 0.78354,0.0547 -0.0524,-0.60189 -2.55988,-1.03961 -2.14163,0.0546" />
    <path
       inkscape:connector-curvature="0"
       id="path28"
       style="fill:#ffffff;stroke:#cccccc;stroke-width:0.23280364;stroke-linecap:butt;stroke-linejoin:miter;stroke-miterlimit:1;stroke-dasharray:none;stroke-opacity:1"
       d="m 254.1747,119.50142 -2.71656,1.36815 0.36555,0.38308 0.26118,-0.10934 v 0.54721 l 1.51491,0.10947 v -0.54734 l -0.99242,-0.0547 1.41065,-1.04 h 2.19406 l 1.46284,0.98533 -1.61927,0.0546 v 0.65681 l 1.72341,0.16401 0.36604,-0.98522 0.78354,0.0547 -0.0524,-0.60189 -2.55988,-1.03961 -2.14163,0.0546 z" />
    <path
       inkscape:connector-curvature="0"
       id="path30"
       style="fill:#ffffff;fill-opacity:1;fill-rule:nonzero;stroke:#cccccc;stroke-width:1.06666672;stroke-miterlimit:1;stroke-dasharray:none"
       d="m 213.60843,121.24589 v 0.98521 l 1.09707,0.0406 22.64701,1.51879 h 21.78548 l 6.26885,-0.65668 2.04249,-1.51076 1.64069,-0.049 0.15632,-0.90313 c 0,0 -33.69606,2.87343 -55.63791,0.57486" />
    <path
       inkscape:connector-curvature="0"
       id="path32"
       style="fill:#ffffff;stroke:#cccccc;stroke-width:0.23280364;stroke-linecap:butt;stroke-linejoin:miter;stroke-miterlimit:1;stroke-dasharray:none;stroke-opacity:1"
       d="m 213.60843,121.24589 v 0.98521 l 1.09707,0.0406 22.64701,1.51879 h 21.78548 l 6.26885,-0.65668 2.04249,-1.51076 1.64069,-0.049 0.15632,-0.90313 c 0,0 -33.69606,2.87343 -55.63791,0.57486 z" />
    <path
       inkscape:connector-curvature="0"
       id="path34"
       style="fill:#ffffff;fill-opacity:1;fill-rule:nonzero;stroke:#cccccc;stroke-width:1.06666672;stroke-miterlimit:1;stroke-dasharray:none"
       d="m 214.39202,122.14878 v 3.77606 l 52.97386,0.0823 0.0834,-4.38406 c 0,0 -24.09549,2.21611 -53.05731,0.52567" />
    <path
       inkscape:connector-curvature="0"
       id="path36"
       style="fill:#ffffff;stroke:#cccccc;stroke-width:0.23280364;stroke-linecap:butt;stroke-linejoin:miter;stroke-miterlimit:1;stroke-dasharray:none;stroke-opacity:1"
       d="m 214.39202,122.14878 v 3.77606 l 52.97386,0.0823 0.0834,-4.38406 c 0,0 -24.09549,2.21611 -53.05731,0.52567 z" />
    <path
       inkscape:connector-curvature="0"
       id="path38"
       style="fill:#ffffff;fill-opacity:1;fill-rule:nonzero;stroke:#cccccc;stroke-width:1.06666672;stroke-miterlimit:1;stroke-dasharray:none"
       d="m 258.23645,134.74993 -0.86225,22.49284 3.80105,0.16444 -0.27456,-22.65728" />
    <path
       inkscape:connector-curvature="0"
       id="path40"
       style="fill:#ffffff;stroke:#cccccc;stroke-width:0.23280364;stroke-linecap:butt;stroke-linejoin:miter;stroke-miterlimit:1;stroke-dasharray:none;stroke-opacity:1"
       d="m 258.23645,134.74993 -0.86225,22.49284 3.80105,0.16444 -0.27456,-22.65728" />
    <path
       inkscape:connector-curvature="0"
       id="path42"
       style="fill:#ffffff;fill-opacity:1;fill-rule:nonzero;stroke:#cccccc;stroke-width:1.06666672;stroke-miterlimit:1;stroke-dasharray:none"
       d="m 257.2568,134.01092 0.0392,1.29323 4.38874,0.0203 0.0388,-1.14922 -4.46673,-0.16427" />
    <path
       inkscape:connector-curvature="0"
       id="path44"
       style="fill:#ffffff;stroke:#cccccc;stroke-width:0.23280364;stroke-linecap:butt;stroke-linejoin:miter;stroke-miterlimit:1;stroke-dasharray:none;stroke-opacity:1"
       d="m 257.2568,134.01092 0.0392,1.29323 4.38874,0.0203 0.0388,-1.14922 -4.46673,-0.16427 z" />
    <path
       inkscape:connector-curvature="0"
       id="path46"
       style="fill:#ffffff;fill-opacity:1;fill-rule:nonzero;stroke:#cccccc;stroke-width:1.06666672;stroke-miterlimit:1;stroke-dasharray:none"
       d="m 256.1858,133.72381 3.1871,-0.93041 3.60459,0.90313 c 0,0 -0.94047,0.79317 -1.30602,0.79317 -0.36569,0 -4.38839,0 -4.38839,0 0,0 -1.09728,-0.51956 -1.09728,-0.76589" />
    <path
       inkscape:connector-curvature="0"
       id="path48"
       style="fill:#ffffff;fill-opacity:1;fill-rule:nonzero;stroke:#cccccc;stroke-width:1.06666672;stroke-miterlimit:1;stroke-dasharray:none"
       d="m 257.94911,150.66852 1.18888,-0.21883 0.11715,2.70901 -1.19496,0.38998 -0.11107,-2.88016" />
    <path
       inkscape:connector-curvature="0"
       id="path50"
       style="fill:#ffffff;stroke:#cccccc;stroke-width:0.23280364;stroke-linecap:butt;stroke-linejoin:miter;stroke-miterlimit:1;stroke-dasharray:none;stroke-opacity:1"
       d="m 257.94911,150.66852 1.18888,-0.21883 0.11715,2.70901 -1.19496,0.38998 z" />
    <path
       inkscape:connector-curvature="0"
       id="path52"
       style="fill:#ffffff;fill-opacity:1;fill-rule:nonzero;stroke:#cccccc;stroke-width:1.06666672;stroke-miterlimit:1;stroke-dasharray:none"
       d="m 257.50522,140.50979 1.60649,-0.36931 -0.0788,-2.17572 -1.72365,0.24672" />
    <path
       inkscape:connector-curvature="0"
       id="path54"
       style="fill:#ffffff;stroke:#cccccc;stroke-width:0.23280364;stroke-linecap:butt;stroke-linejoin:miter;stroke-miterlimit:1;stroke-dasharray:none;stroke-opacity:1"
       d="m 257.50522,140.50979 1.60649,-0.36931 -0.0788,-2.17572 -1.72365,0.24672" />
    <path
       inkscape:connector-curvature="0"
       id="path56"
       style="fill:#ffffff;fill-opacity:1;fill-rule:nonzero;stroke:#cccccc;stroke-width:1.06666672;stroke-miterlimit:1;stroke-dasharray:none"
       d="m 227.58321,134.66761 0.0785,1.31348 0.862,0.0822 -1.0317,21.64364 4.23157,-0.0546 -0.30035,-21.67118 h 1.17538 l 0.0783,-1.23141 -5.09371,-0.082" />
    <path
       inkscape:connector-curvature="0"
       id="path58"
       style="fill:#ffffff;stroke:#cccccc;stroke-width:0.23280364;stroke-linecap:butt;stroke-linejoin:miter;stroke-miterlimit:1;stroke-dasharray:none;stroke-opacity:1"
       d="m 227.58321,134.66761 0.0785,1.31348 0.862,0.0822 -1.0317,21.64364 4.23157,-0.0546 -0.30035,-21.67118 h 1.17538 l 0.0783,-1.23141 -5.09371,-0.082 z" />
    <path
       inkscape:connector-curvature="0"
       id="path60"
       style="fill:#ffffff;fill-opacity:1;fill-rule:nonzero;stroke:#cccccc;stroke-width:1.06666672;stroke-miterlimit:1;stroke-dasharray:none"
       d="m 229.93409,133.20374 4.15336,1.23129 -1.25385,0.41047 -6.03406,0.16414 -1.48886,-0.0819" />
    <path
       inkscape:connector-curvature="0"
       id="path62"
       style="fill:#ffffff;fill-opacity:1;fill-rule:nonzero;stroke:#cccccc;stroke-width:1.06666672;stroke-miterlimit:1;stroke-dasharray:none"
       d="m 252.59446,115.78666 -0.0786,1.76523 1.09728,0.0819 c 0,0 -1.52829,38.99333 -0.7445,41.37409 l 5.59004,-0.0821 c 0,0 -0.41823,-23.25891 -1.5936,-26.10507 l -0.54877,-15.18683 0.94047,-0.16413 v -2.70892" />
    <path
       inkscape:connector-curvature="0"
       id="path64"
       style="fill:#ffffff;stroke:#cccccc;stroke-width:0.23280364;stroke-linecap:butt;stroke-linejoin:miter;stroke-miterlimit:1;stroke-dasharray:none;stroke-opacity:1"
       d="m 252.59446,115.78666 -0.0786,1.76523 1.09728,0.0819 c 0,0 -1.52829,38.99333 -0.7445,41.37409 l 5.59004,-0.0821 c 0,0 -0.41823,-23.25891 -1.5936,-26.10507 l -0.54877,-15.18683 0.94047,-0.16413 v -2.70892" />
    <path
       inkscape:connector-curvature="0"
       id="path66"
       style="fill:#ffffff;fill-opacity:1;fill-rule:nonzero;stroke:#cccccc;stroke-width:1.06666672;stroke-miterlimit:1;stroke-dasharray:none"
       d="m 223.83555,138.41385 5.88711,-0.0803 -0.0888,2.69629 -5.71886,0.14732 -0.0795,-2.76333" />
    <path
       inkscape:connector-curvature="0"
       id="path68"
       style="fill:#ffffff;stroke:#cccccc;stroke-width:0.23280364;stroke-linecap:butt;stroke-linejoin:miter;stroke-miterlimit:1;stroke-dasharray:none;stroke-opacity:1"
       d="m 223.83555,138.41385 5.88711,-0.0803 -0.0888,2.69629 -5.71886,0.14732 -0.0795,-2.76333 z" />
    <path
       inkscape:connector-curvature="0"
       id="path70"
       style="fill:#ffffff;fill-opacity:1;fill-rule:nonzero;stroke:#cccccc;stroke-width:1.06666672;stroke-miterlimit:1;stroke-dasharray:none"
       d="m 223.46781,151.37489 5.99622,-0.4394 v 2.8459 l -5.9635,0.42996 -0.0327,-2.83646" />
    <path
       inkscape:connector-curvature="0"
       id="path72"
       style="fill:#ffffff;stroke:#cccccc;stroke-width:0.23280364;stroke-linecap:butt;stroke-linejoin:miter;stroke-miterlimit:1;stroke-dasharray:none;stroke-opacity:1"
       d="m 223.46781,151.37489 5.99622,-0.4394 v 2.8459 l -5.9635,0.42996 -0.0327,-2.83646 z" />
    <path
       inkscape:connector-curvature="0"
       id="path74"
       style="fill:#ffffff;fill-opacity:1;fill-rule:nonzero;stroke:#cccccc;stroke-width:1.06666672;stroke-miterlimit:1;stroke-dasharray:none"
       d="m 224.20817,114.67285 v 3.32431 h 0.82271 c 0,0 -1.54579,13.83804 -1.86221,19.09224 -0.2686,4.4674 -0.27408,21.76659 -0.27408,21.76659 l 4.7222,-0.22565 c 0,0 0.16228,-40.57239 0,-40.63318 l 1.05787,-0.12297 0.1175,-3.44766" />
    <path
       inkscape:connector-curvature="0"
       id="path76"
       style="fill:#ffffff;stroke:#cccccc;stroke-width:0.23280364;stroke-linecap:butt;stroke-linejoin:miter;stroke-miterlimit:1;stroke-dasharray:none;stroke-opacity:1"
       d="m 224.20817,114.67285 v 3.32431 h 0.82271 c 0,0 -1.54579,13.83804 -1.86221,19.09224 -0.2686,4.4674 -0.27408,21.76659 -0.27408,21.76659 l 4.7222,-0.22565 c 0,0 0.16228,-40.57239 0,-40.63318 l 1.05787,-0.12297 0.1175,-3.44766" />
    <path
       inkscape:connector-curvature="0"
       id="path78"
       style="fill:#ffffff;fill-opacity:1;fill-rule:nonzero;stroke:#cccccc;stroke-width:1.06666672;stroke-miterlimit:1;stroke-dasharray:none"
       d="m 210.56049,110.17181 0.98435,2.7279 1.93301,0.21894 0.67918,2.84603 c 0,0 16.85548,2.58008 53.44388,-0.54721 l 0.94047,-2.95551 2.11536,-0.41021 0.94108,-3.52998" />
    <path
       inkscape:connector-curvature="0"
       id="path80"
       style="fill:#ffffff;stroke:#cccccc;stroke-width:0.23280364;stroke-linecap:butt;stroke-linejoin:miter;stroke-miterlimit:1;stroke-dasharray:none;stroke-opacity:1"
       d="m 210.56049,110.17181 0.98435,2.7279 1.93301,0.21894 0.67918,2.84603 c 0,0 16.85548,2.58008 53.44388,-0.54721 l 0.94047,-2.95551 2.11536,-0.41021 0.94108,-3.52998" />
    <path
       inkscape:connector-curvature="0"
       id="path82"
       style="fill:#ffffff;fill-opacity:1;fill-rule:nonzero;stroke:#cccccc;stroke-width:1.06666672;stroke-miterlimit:1;stroke-dasharray:none"
       d="m 208.24055,106.96208 -0.74454,3.28339 c 0,0 19.30353,2.21649 27.03546,1.50514 l -1.61941,1.09456 15.35947,-0.32827 -1.51539,-0.95782 c 0,0 23.00951,-1.44155 25.46854,-2.5449 0.18248,-0.0818 2.66898,-4.3833 2.66898,-4.3833 l -20.37944,4.30148 -17.8669,0.0818 -19.04232,-0.57448 -9.36445,-1.47762" />
    <path
       inkscape:connector-curvature="0"
       id="path84"
       style="fill:#ffffff;stroke:#cccccc;stroke-width:0.23280364;stroke-linecap:butt;stroke-linejoin:miter;stroke-miterlimit:1;stroke-dasharray:none;stroke-opacity:1"
       d="m 208.24055,106.96208 -0.74454,3.28339 c 0,0 19.30353,2.21649 27.03546,1.50514 l -1.61941,1.09456 15.35947,-0.32827 -1.51539,-0.95782 c 0,0 23.00951,-1.44155 25.46854,-2.5449 0.18248,-0.0818 2.66898,-4.3833 2.66898,-4.3833 l -20.37944,4.30148 -17.8669,0.0818 -19.04232,-0.57448 z" />
    <path
       inkscape:connector-curvature="0"
       id="path86"
       style="fill:#ffffff;fill-opacity:1;fill-rule:nonzero;stroke:#cccccc;stroke-width:1.06666672;stroke-miterlimit:1;stroke-dasharray:none"
       d="m 206.4466,104.63088 c 0,0 2.80492,2.36369 15.5467,3.39822 9.49304,0.77073 27.62331,0 33.38268,-0.49255 5.75925,-0.49241 18.75543,-2.87317 21.10594,-4.597 l -0.41762,1.75123 c 0,0 -1.01905,2.0795 -18.38939,4.21406 -11.6309,1.42894 -38.25498,2.54439 -49.42129,-1.14947 -0.20562,-0.0678 -0.36576,-1.1491 -1.2538,-1.5049 l -0.55322,-1.61959" />
    <path
       inkscape:connector-curvature="0"
       id="path88"
       style="fill:#ffffff;stroke:#cccccc;stroke-width:0.23280364;stroke-linecap:butt;stroke-linejoin:miter;stroke-miterlimit:1;stroke-dasharray:none;stroke-opacity:1"
       d="m 206.4466,104.63088 c 0,0 2.80492,2.36369 15.5467,3.39822 9.49304,0.77073 27.62331,0 33.38268,-0.49255 5.75925,-0.49241 18.75543,-2.87317 21.10594,-4.597 l -0.41762,1.75123 c 0,0 -1.01905,2.0795 -18.38939,4.21406 -11.6309,1.42894 -38.25498,2.54439 -49.42129,-1.14947 -0.20562,-0.0678 -0.36576,-1.1491 -1.2538,-1.5049 z" />
    <path
       inkscape:connector-curvature="0"
       id="path90"
       style="fill:#ffffff;fill-opacity:1;fill-rule:nonzero;stroke:#cccccc;stroke-width:1.06666672;stroke-miterlimit:1;stroke-dasharray:none"
       d="m 218.02288,132.90261 0.23502,1.23154 1.09718,0.16427 -0.53538,25.98053 h 3.81372 l -0.61396,-25.89859 1.17537,-0.16426 0.39195,-1.23116 -5.5639,-0.0823" />
    <path
       inkscape:connector-curvature="0"
       id="path92"
       style="fill:#ffffff;stroke:#cccccc;stroke-width:0.23280364;stroke-linecap:butt;stroke-linejoin:miter;stroke-miterlimit:1;stroke-dasharray:none;stroke-opacity:1"
       d="m 218.02288,132.90261 0.23502,1.23154 1.09718,0.16427 -0.53538,25.98053 h 3.81372 l -0.61396,-25.89859 1.17537,-0.16426 0.39195,-1.23116 -5.5639,-0.0823 z" />
    <path
       inkscape:connector-curvature="0"
       id="path94"
       style="fill:#ffffff;fill-opacity:1;fill-rule:nonzero;stroke:#cccccc;stroke-width:1.06666672;stroke-miterlimit:1;stroke-dasharray:none"
       d="m 224.81435,133.55954 h -7.52289 l -0.47025,-0.65693 3.99658,-0.98496 3.68306,1.06729 0.3135,0.5746" />
    <path
       inkscape:connector-curvature="0"
       id="path96"
       style="fill:#ffffff;fill-opacity:1;fill-rule:nonzero;stroke:#cccccc;stroke-width:1.06666672;stroke-miterlimit:1;stroke-dasharray:none"
       d="m 220.7886,138.26933 -0.10464,2.90058 -0.44037,0.0691 -0.0502,-3.04012 0.59524,0.0705" />
    <path
       inkscape:connector-curvature="0"
       id="path98"
       style="fill:#ffffff;stroke:#cccccc;stroke-width:0.23280364;stroke-linecap:butt;stroke-linejoin:miter;stroke-miterlimit:1;stroke-dasharray:none;stroke-opacity:1"
       d="m 220.7886,138.26933 -0.10464,2.90058 -0.44037,0.0691 -0.0502,-3.04012 0.59524,0.0705 z" />
    <path
       inkscape:connector-curvature="0"
       id="path100"
       style="fill:#ffffff;fill-opacity:1;fill-rule:nonzero;stroke:#cccccc;stroke-width:1.06666672;stroke-miterlimit:1;stroke-dasharray:none"
       d="m 219.68159,138.32057 -0.0208,2.83749 0.52893,0.082 v -3.03733 l -0.50813,0.11776" />
    <path
       inkscape:connector-curvature="0"
       id="path102"
       style="fill:#ffffff;stroke:#cccccc;stroke-width:0.23280364;stroke-linecap:butt;stroke-linejoin:miter;stroke-miterlimit:1;stroke-dasharray:none;stroke-opacity:1"
       d="m 219.68159,138.32057 -0.0208,2.83749 0.52893,0.082 v -3.03733 l -0.50813,0.11776 z" />
    <path
       inkscape:connector-curvature="0"
       id="path104"
       style="fill:#ffffff;fill-opacity:1;fill-rule:nonzero;stroke:#cccccc;stroke-width:1.06666672;stroke-miterlimit:1;stroke-dasharray:none"
       d="m 220.91257,151.67093 -0.0358,2.86294 -0.50899,0.10624 -0.0501,-3.03985 0.59499,0.0706" />
    <path
       inkscape:connector-curvature="0"
       id="path106"
       style="fill:#ffffff;stroke:#cccccc;stroke-width:0.23280364;stroke-linecap:butt;stroke-linejoin:miter;stroke-miterlimit:1;stroke-dasharray:none;stroke-opacity:1"
       d="m 220.91257,151.67093 -0.0358,2.86294 -0.50899,0.10624 -0.0501,-3.03985 0.59499,0.0706 z" />
    <path
       inkscape:connector-curvature="0"
       id="path108"
       style="fill:#ffffff;fill-opacity:1;fill-rule:nonzero;stroke:#cccccc;stroke-width:1.06666672;stroke-miterlimit:1;stroke-dasharray:none"
       d="m 219.77952,151.61941 0.005,2.9401 0.52893,0.0821 v -3.03755 l -0.53428,0.0154" />
    <path
       inkscape:connector-curvature="0"
       id="path110"
       style="fill:#ffffff;stroke:#cccccc;stroke-width:0.23280364;stroke-linecap:butt;stroke-linejoin:miter;stroke-miterlimit:1;stroke-dasharray:none;stroke-opacity:1"
       d="m 219.77952,151.61941 0.005,2.9401 0.52893,0.0821 v -3.03755 l -0.53428,0.0154 z" />
    <path
       inkscape:connector-curvature="0"
       id="path112"
       style="fill:#ffffff;fill-opacity:1;fill-rule:nonzero;stroke:#cccccc;stroke-width:1.06666672;stroke-miterlimit:1;stroke-dasharray:none"
       d="m 250.41317,134.07273 c 0,0 -0.20875,24.95561 -0.31313,25.61225 -0.10485,0.65669 4.33583,0.0549 4.33583,0.0549 0,0 -1.20165,-24.79172 -0.78366,-25.55799" />
    <path
       inkscape:connector-curvature="0"
       id="path114"
       style="fill:#ffffff;stroke:#cccccc;stroke-width:0.23280364;stroke-linecap:butt;stroke-linejoin:miter;stroke-miterlimit:1;stroke-dasharray:none;stroke-opacity:1"
       d="m 250.41317,134.07273 c 0,0 -0.20875,24.95561 -0.31313,25.61225 -0.10485,0.65669 4.33583,0.0549 4.33583,0.0549 0,0 -1.20165,-24.79172 -0.78366,-25.55799" />
    <path
       inkscape:connector-curvature="0"
       id="path116"
       style="fill:#ffffff;fill-opacity:1;fill-rule:nonzero;stroke:#cccccc;stroke-width:1.06666672;stroke-miterlimit:1;stroke-dasharray:none"
       d="m 249.52513,133.36788 0.10453,1.14935 h 4.85832 l 0.10443,-1.20402 -5.06719,0.0547" />
    <path
       inkscape:connector-curvature="0"
       id="path118"
       style="fill:#ffffff;stroke:#cccccc;stroke-width:0.23280364;stroke-linecap:butt;stroke-linejoin:miter;stroke-miterlimit:1;stroke-dasharray:none;stroke-opacity:1"
       d="m 249.52513,133.36788 0.10453,1.14935 h 4.85832 l 0.10443,-1.20402 -5.06719,0.0547 z" />
    <path
       inkscape:connector-curvature="0"
       id="path120"
       style="fill:#ffffff;fill-opacity:1;fill-rule:nonzero;stroke:#cccccc;stroke-width:1.06666672;stroke-miterlimit:1;stroke-dasharray:none"
       d="m 248.30389,132.59498 c 0,0 0.99911,0.8616 1.2733,0.8616 0.27456,0 4.99603,-0.0406 4.99603,-0.0406 0,0 1.16077,-0.37493 1.42999,-0.65669 0.0588,-0.0617 -3.76141,-1.02611 -3.76141,-1.02611 l -3.93791,0.86185" />
    <path
       inkscape:connector-curvature="0"
       id="path122"
       style="fill:#ffffff;fill-opacity:1;fill-rule:nonzero;stroke:#cccccc;stroke-width:1.06666672;stroke-miterlimit:1;stroke-dasharray:none"
       d="m 254.08309,151.31152 1.13657,-0.20489 0.13686,3.16042 -1.14947,0.33526 -0.12396,-3.29079" />
    <path
       inkscape:connector-curvature="0"
       id="path124"
       style="fill:#ffffff;stroke:#cccccc;stroke-width:0.23280364;stroke-linecap:butt;stroke-linejoin:miter;stroke-miterlimit:1;stroke-dasharray:none;stroke-opacity:1"
       d="m 254.08309,151.31152 1.13657,-0.20489 0.13686,3.16042 -1.14947,0.33526 z" />
    <path
       inkscape:connector-curvature="0"
       id="path126"
       style="fill:#ffffff;fill-opacity:1;fill-rule:nonzero;stroke:#cccccc;stroke-width:1.06666672;stroke-miterlimit:1;stroke-dasharray:none"
       d="m 251.28175,151.70175 0.75082,-0.0308 0.026,3.61561 -0.67917,0.0545 -0.0977,-3.63929" />
    <path
       inkscape:connector-curvature="0"
       id="path128"
       style="fill:#ffffff;stroke:#cccccc;stroke-width:0.23280364;stroke-linecap:butt;stroke-linejoin:miter;stroke-miterlimit:1;stroke-dasharray:none;stroke-opacity:1"
       d="m 251.28175,151.70175 0.75082,-0.0308 0.026,3.61561 -0.67917,0.0545 -0.0977,-3.63929 z" />
    <path
       inkscape:connector-curvature="0"
       id="path130"
       style="fill:#ffffff;fill-opacity:1;fill-rule:nonzero;stroke:#cccccc;stroke-width:1.06666672;stroke-miterlimit:1;stroke-dasharray:none"
       d="m 252.92049,151.55111 0.0852,3.4134 -0.94716,0.32203 -0.026,-3.61561 0.88793,-0.11982" />
    <path
       inkscape:connector-curvature="0"
       id="path132"
       style="fill:#ffffff;stroke:#cccccc;stroke-width:0.23280364;stroke-linecap:butt;stroke-linejoin:miter;stroke-miterlimit:1;stroke-dasharray:none;stroke-opacity:1"
       d="m 252.92049,151.55111 0.0852,3.4134 -0.94716,0.32203 -0.026,-3.61561 0.88793,-0.11982 z" />
    <path
       inkscape:connector-curvature="0"
       id="path134"
       style="fill:#ffffff;fill-opacity:1;fill-rule:nonzero;stroke:#cccccc;stroke-width:1.06666672;stroke-miterlimit:1;stroke-dasharray:none"
       d="m 251.44841,139.24434 0.46689,-0.0614 0.0519,2.57217 -0.51883,0.0238 v -2.53458" />
    <path
       inkscape:connector-curvature="0"
       id="path136"
       style="fill:#ffffff;stroke:#cccccc;stroke-width:0.23280364;stroke-linecap:butt;stroke-linejoin:miter;stroke-miterlimit:1;stroke-dasharray:none;stroke-opacity:1"
       d="m 251.44841,139.24434 0.46689,-0.0614 0.0519,2.57217 -0.51883,0.0238 v -2.53458 z" />
    <path
       inkscape:connector-curvature="0"
       id="path138"
       style="fill:#ffffff;fill-opacity:1;fill-rule:nonzero;stroke:#cccccc;stroke-width:1.06666672;stroke-miterlimit:1;stroke-dasharray:none"
       d="m 252.77037,139.06989 -0.01,2.49342 -0.79389,0.19178 -0.052,-2.57217 0.85508,-0.11303" />
    <path
       inkscape:connector-curvature="0"
       id="path140"
       style="fill:#ffffff;stroke:#cccccc;stroke-width:0.23280364;stroke-linecap:butt;stroke-linejoin:miter;stroke-miterlimit:1;stroke-dasharray:none;stroke-opacity:1"
       d="m 252.77037,139.06989 -0.01,2.49342 -0.79389,0.19178 -0.052,-2.57217 0.85508,-0.11303 z" />
    <path
       inkscape:connector-curvature="0"
       id="path142"
       style="fill:#ffffff;fill-opacity:1;fill-rule:nonzero;stroke:#cccccc;stroke-width:1.06666672;stroke-miterlimit:1;stroke-dasharray:none"
       d="m 253.62606,138.96399 1.34532,-0.21919 0.0261,2.28506 -1.30615,0.30074" />
    <path
       inkscape:connector-curvature="0"
       id="path144"
       style="fill:#ffffff;stroke:#cccccc;stroke-width:0.23280364;stroke-linecap:butt;stroke-linejoin:miter;stroke-miterlimit:1;stroke-dasharray:none;stroke-opacity:1"
       d="m 253.62606,138.96399 1.34532,-0.21919 0.0261,2.28506 -1.30615,0.30074" />
    <path
       inkscape:connector-curvature="0"
       id="path146"
       style="fill:#ffffff;fill-opacity:1;fill-rule:nonzero;stroke:#cccccc;stroke-width:1.06666672;stroke-miterlimit:1;stroke-dasharray:none"
       d="m 237.58803,115.03477 0.70521,8.98846 5.2763,0.0411 0.8356,-9.15273 -6.81711,0.12324" />
    <path
       inkscape:connector-curvature="0"
       id="path148"
       style="fill:#ffffff;fill-opacity:1;fill-rule:nonzero;stroke:#cccccc;stroke-width:1.06666672;stroke-miterlimit:1;stroke-dasharray:none"
       d="m 240.59022,117.55444 c 0,0 -0.15864,0.17841 -0.48672,0.39786 -0.1725,0.11571 -0.39975,0.2234 -0.65959,0.36995 -0.28806,0.16273 0.7063,-0.12552 0.75314,-0.14655 0.0466,-0.0209 0.0398,0.52364 0.0398,0.52364 0,0 -0.97964,0.32113 -1.04606,0.33503 -0.0668,0.0139 -0.16958,0.18375 0.21982,0.12552 0.0933,-0.0138 0.69985,-0.23028 0.75302,-0.22327 0.0534,0.007 -0.93293,1.45902 -0.99948,1.48692 -0.0668,0.028 -0.1,0.16746 0.0799,0.028 0.1798,-0.13967 0.97952,-0.9494 0.97952,-0.99821 0,-0.0486 -0.006,1.05403 -0.0734,1.30532 -0.0667,0.25131 0.26679,0.74704 0.34002,0.38397 0.0733,-0.36306 0.04,-1.71031 0.04,-1.71031 l 0.41969,0.36306 c 0,0 0.25996,0.13253 0.16666,-0.22339 -0.0933,-0.35607 -0.21337,-0.20224 -0.28661,-0.20224 -0.0732,0 -0.31325,-0.084 -0.31325,-0.084 l 0.0136,-0.4329 c 0,0 0.50643,-0.0908 0.61276,-0.0627 0.10667,0.0282 0.25326,-0.15343 0.14013,-0.18848 -0.11314,-0.0349 -0.33989,-0.13941 -0.45315,-0.0767 -0.18709,0.10357 -0.0999,0.11852 -0.29974,0.11176 l 0.0332,-0.30037 c 0,0 0.0198,-0.20937 -0.10656,-0.25819 -0.12663,-0.0488 0.4332,-0.14667 0.50643,-0.24417 0.0734,-0.0977 -0.0999,-0.30737 -0.18673,-0.32839 -0.0866,-0.0209 -0.25315,-0.23729 -0.18637,0.049" />
    <path
       inkscape:connector-curvature="0"
       id="path150"
       style="fill:#ffffff;fill-opacity:1;fill-rule:nonzero;stroke:#cccccc;stroke-width:1.06666672;stroke-miterlimit:1;stroke-dasharray:none"
       d="m 241.50953,119.2301 0.18016,0.83038 0.006,0.21638 c 0,0 -0.0603,0.34931 -0.26642,-0.006 -0.20692,-0.35618 -0.11337,-0.93551 -0.21373,-1.04727 -0.0996,-0.11176 -0.17956,-0.28622 0.0335,-0.2583 0,0 0.12007,0.0909 0.14015,0.11863 0.036,0.0504 0.1197,0.14693 0.1197,0.14693" />
    <path
       inkscape:connector-curvature="0"
       id="path152"
       style="fill:#ffffff;fill-opacity:1;fill-rule:nonzero;stroke:#cccccc;stroke-width:1.06666672;stroke-miterlimit:1;stroke-dasharray:none"
       d="m 241.32291,119.06915 c 0,0 1.11286,-0.19536 1.21954,-0.26519 0.10681,-0.0697 0.20704,-0.0558 0.28004,-0.007 0.0734,0.049 0.23307,0.16069 0.23307,0.16069 0,0 0.12044,-0.0349 -0.0133,0.18148 -0.13309,0.21638 -0.31957,0.77481 -0.31957,0.80272 0,0.0282 0.12651,0.17446 0.0932,0.19536 -0.0336,0.021 -0.0468,0.07 -0.1135,0.049 -0.0665,-0.0209 -0.87295,-0.0418 -1.00592,0.0908 -0.13357,0.13279 -0.10692,-0.20938 -0.10692,-0.20938 l 0.83974,-0.14655 0.12675,-0.89359 -1.04642,0.20276" />
    <path
       inkscape:connector-curvature="0"
       id="path154"
       style="fill:#ffffff;fill-opacity:1;fill-rule:nonzero;stroke:#cccccc;stroke-width:1.06666672;stroke-miterlimit:1;stroke-dasharray:none"
       d="m 238.64881,123.96398 c 0,0.18147 -0.13138,0.32828 -0.29366,0.32828 -0.16252,0 -0.2939,-0.14681 -0.2939,-0.32828 0,-0.18135 0.13138,-0.32841 0.2939,-0.32841 0.16228,0 0.29366,0.14706 0.29366,0.32841" />
    <path
       inkscape:connector-curvature="0"
       id="path156"
       style="fill:#ffffff;fill-opacity:1;fill-rule:nonzero;stroke:#cccccc;stroke-width:1.06666672;stroke-miterlimit:1;stroke-dasharray:none"
       d="m 237.8817,115.03477 c 0,0.18135 -0.13139,0.32841 -0.29367,0.32841 -0.16228,0 -0.29391,-0.14706 -0.29391,-0.32841 0,-0.18146 0.13163,-0.32852 0.29391,-0.32852 0.16228,0 0.29367,0.14706 0.29367,0.32852" />
    <path
       inkscape:connector-curvature="0"
       id="path158"
       style="fill:#ffffff;fill-opacity:1;fill-rule:nonzero;stroke:#cccccc;stroke-width:1.06666672;stroke-miterlimit:1;stroke-dasharray:none"
       d="m 244.53933,114.84821 c 0,0.18122 -0.13151,0.32841 -0.29391,0.32841 -0.16228,0 -0.29378,-0.14719 -0.29378,-0.32841 0,-0.18121 0.1315,-0.3284 0.29378,-0.3284 0.1624,0 0.29391,0.14719 0.29391,0.3284" />
    <path
       inkscape:connector-curvature="0"
       id="path160"
       style="fill:#ffffff;fill-opacity:1;fill-rule:nonzero;stroke:#cccccc;stroke-width:1.06666672;stroke-miterlimit:1;stroke-dasharray:none"
       d="m 243.72634,124.02323 c 0,0.18135 -0.13175,0.32841 -0.29403,0.32841 -0.16227,0 -0.29365,-0.14706 -0.29365,-0.32841 0,-0.1812 0.13138,-0.32826 0.29365,-0.32826 0.16228,0 0.29403,0.14706 0.29403,0.32826" />
    <path
       inkscape:connector-curvature="0"
       id="path162"
       style="fill:#ffffff;fill-opacity:1;fill-rule:nonzero;stroke:#cccccc;stroke-width:1.06666672;stroke-miterlimit:1;stroke-dasharray:none"
       d="m 222.11422,138.3774 2.02497,0.0637 v 2.67616 l -1.95709,0.12718 -0.0678,-2.86707" />
    <path
       inkscape:connector-curvature="0"
       id="path164"
       style="fill:#ffffff;stroke:#cccccc;stroke-width:0.23280364;stroke-linecap:butt;stroke-linejoin:miter;stroke-miterlimit:1;stroke-dasharray:none;stroke-opacity:1"
       d="m 222.11422,138.3774 2.02497,0.0637 v 2.67616 l -1.95709,0.12718 -0.0678,-2.86707 z" />
    <path
       inkscape:connector-curvature="0"
       id="path166"
       style="fill:#ffffff;fill-opacity:1;fill-rule:nonzero;stroke:#cccccc;stroke-width:1.06666672;stroke-miterlimit:1;stroke-dasharray:none"
       d="m 222.42612,151.53378 1.83497,-0.18582 -0.0306,2.83153 -1.73557,0.25576 -0.11958,-2.77263" />
    <path
       inkscape:connector-curvature="0"
       id="path168"
       style="fill:#ffffff;stroke:#cccccc;stroke-width:0.23280364;stroke-linecap:butt;stroke-linejoin:miter;stroke-miterlimit:1;stroke-dasharray:none;stroke-opacity:1"
       d="m 222.42612,151.53378 1.83497,-0.18582 -0.0306,2.83153 -1.73557,0.25576 -0.11958,-2.77263" />
  </g>
</svg>
