<?xml version="1.0" encoding="UTF-8" standalone="no"?>
<!-- Created with Inkscape (http://www.inkscape.org/) -->

<svg
   xmlns:dc="http://purl.org/dc/elements/1.1/"
   xmlns:cc="http://creativecommons.org/ns#"
   xmlns:rdf="http://www.w3.org/1999/02/22-rdf-syntax-ns#"
   xmlns:svg="http://www.w3.org/2000/svg"
   xmlns="http://www.w3.org/2000/svg"
   xmlns:sodipodi="http://sodipodi.sourceforge.net/DTD/sodipodi-0.dtd"
   xmlns:inkscape="http://www.inkscape.org/namespaces/inkscape"
   width="109.89818"
   height="95.295494"
   id="svg2"
   version="1.1"
   inkscape:version="0.92.3 (2405546, 2018-03-11)"
   sodipodi:docname="logo-white.svg"
   inkscape:export-filename="/home/usr411/_/CODING/BMP/drawing2.png"
   inkscape:export-xdpi="599.71368"
   inkscape:export-ydpi="599.71368">
  <defs
     id="defs4">
    <clipPath
       clipPathUnits="userSpaceOnUse"
       id="clipPath626">
      <path
         inkscape:connector-curvature="0"
         d="m 323.049,649.705 c 2.35,9.869 20.493,-2.588 43.835,-14.035 l 0,0 c 27.349,-13.412 43.306,-14.922 46.897,0.132 l 0,0 c -3.786,-9 -26.642,1.609 -47.612,11.399 l 0,0 c -11.773,5.496 -23.733,10.838 -32.158,10.838 l 0,0 c -5.519,0 -9.522,-2.292 -10.962,-8.334"
         id="path628" />
    </clipPath>
    <linearGradient
       x1="0"
       y1="0"
       x2="1"
       y2="0"
       gradientUnits="userSpaceOnUse"
       gradientTransform="matrix(98.398315,-27.550598,42.539734,-75.734482,320.38135,654.45068)"
       spreadMethod="pad"
       id="linearGradient634">
      <stop
         style="stop-opacity:1;stop-color:#80d190"
         offset="0"
         id="stop636" />
      <stop
         style="stop-opacity:1;stop-color:#54c5b0"
         offset="0.490906"
         id="stop638" />
      <stop
         style="stop-opacity:1;stop-color:#00aab3"
         offset="1"
         id="stop640" />
    </linearGradient>
    <clipPath
       clipPathUnits="userSpaceOnUse"
       id="clipPath604">
      <path
         inkscape:connector-curvature="0"
         d="m 323.049,623.616 c 2.35,9.869 20.493,-2.588 43.835,-14.035 l 0,0 c 27.349,-13.413 43.306,-14.922 46.897,0.132 l 0,0 c -3.786,-9 -26.642,1.608 -47.612,11.399 l 0,0 c -11.773,5.495 -23.733,10.838 -32.159,10.838 l 0,0 c -5.518,0 -9.521,-2.292 -10.961,-8.334"
         id="path606" />
    </clipPath>
    <linearGradient
       x1="0"
       y1="0"
       x2="1"
       y2="0"
       gradientUnits="userSpaceOnUse"
       gradientTransform="matrix(98.398315,-27.550598,42.539734,-75.734482,320.38281,628.36084)"
       spreadMethod="pad"
       id="linearGradient612">
      <stop
         style="stop-opacity:1;stop-color:#00a873"
         offset="0"
         id="stop614" />
      <stop
         style="stop-opacity:1;stop-color:#00adef"
         offset="0.490906"
         id="stop616" />
      <stop
         style="stop-opacity:1;stop-color:#1b64b8"
         offset="1"
         id="stop618" />
    </linearGradient>
    <clipPath
       clipPathUnits="userSpaceOnUse"
       id="clipPath582">
      <path
         inkscape:connector-curvature="0"
         d="m 366.884,636.989 c -23.342,-11.447 -41.485,-23.905 -43.835,-14.036 l 0,0 c 3.64,-15.266 23.635,-6.591 43.12,2.505 l 0,0 c 20.97,9.79 43.826,20.399 47.612,11.399 l 0,0 c -1.752,7.345 -6.448,10.747 -13.975,10.747 l 0,0 c -7.899,0 -18.917,-3.747 -32.922,-10.615"
         id="path584" />
    </clipPath>
    <linearGradient
       x1="0"
       y1="0"
       x2="1"
       y2="0"
       gradientUnits="userSpaceOnUse"
       gradientTransform="matrix(98.398315,27.550598,42.539734,75.734497,320.38379,618.20996)"
       spreadMethod="pad"
       id="linearGradient590">
      <stop
         style="stop-opacity:1;stop-color:#231f20"
         offset="0"
         id="stop592" />
      <stop
         style="stop-opacity:1;stop-color:#939192"
         offset="0.606064"
         id="stop594" />
      <stop
         style="stop-opacity:1;stop-color:#dad9d9"
         offset="1"
         id="stop596" />
    </linearGradient>
    <clipPath
       clipPathUnits="userSpaceOnUse"
       id="clipPath560">
      <path
         inkscape:connector-curvature="0"
         d="m 323.049,597.42 c 2.35,9.869 20.493,-2.588 43.835,-14.035 l 0,0 c 27.349,-13.411 43.306,-14.923 46.897,0.133 l 0,0 c -3.786,-9.001 -26.642,1.608 -47.612,11.398 l 0,0 c -11.773,5.496 -23.733,10.839 -32.158,10.839 l 0,0 c -5.519,-10e-4 -9.522,-2.293 -10.962,-8.335"
         id="path562" />
    </clipPath>
    <linearGradient
       x1="0"
       y1="0"
       x2="1"
       y2="0"
       gradientUnits="userSpaceOnUse"
       gradientTransform="matrix(98.400223,-27.551132,42.540558,-75.735947,320.38232,602.16504)"
       spreadMethod="pad"
       id="linearGradient568">
      <stop
         style="stop-opacity:1;stop-color:#1478c7"
         offset="0"
         id="stop570" />
      <stop
         style="stop-opacity:1;stop-color:#721f90"
         offset="0.490906"
         id="stop572" />
      <stop
         style="stop-opacity:1;stop-color:#ed1c24"
         offset="1"
         id="stop574" />
    </linearGradient>
    <clipPath
       clipPathUnits="userSpaceOnUse"
       id="clipPath538">
      <path
         inkscape:connector-curvature="0"
         d="M 366.884,610.792 C 343.542,599.347 325.399,586.89 323.049,596.758 l 0,0 c 3.64,-15.267 23.635,-6.591 43.12,2.504 l 0,0 c 20.97,9.79 43.826,20.4 47.612,11.399 l 0,0 c -1.752,7.345 -6.448,10.747 -13.975,10.747 l 0,0 c -7.899,0 -18.917,-3.747 -32.922,-10.616"
         id="path540" />
    </clipPath>
    <linearGradient
       x1="0"
       y1="0"
       x2="1"
       y2="0"
       gradientUnits="userSpaceOnUse"
       gradientTransform="matrix(98.398315,27.550598,42.539734,75.734497,320.38379,592.01367)"
       spreadMethod="pad"
       id="linearGradient546">
      <stop
         style="stop-opacity:1;stop-color:#231f20"
         offset="0"
         id="stop548" />
      <stop
         style="stop-opacity:1;stop-color:#939192"
         offset="0.606064"
         id="stop550" />
      <stop
         style="stop-opacity:1;stop-color:#dad9d9"
         offset="1"
         id="stop552" />
    </linearGradient>
    <clipPath
       clipPathUnits="userSpaceOnUse"
       id="clipPath1044">
      <path
         inkscape:connector-curvature="0"
         d="m 360.644,164.226 c 7.433,-11.35 15.474,-23.765 6.866,-33.695 l 0,0 c 14.189,14.191 14.023,27.171 3.736,41.5 l 0,0 c -8.778,12.232 -18.892,19.133 -9.591,28.432 l 0,0 c -14.389,-14.39 -7.915,-25.693 -1.011,-36.237"
         id="path1046" />
    </clipPath>
    <linearGradient
       x1="0"
       y1="0"
       x2="1"
       y2="0"
       gradientUnits="userSpaceOnUse"
       gradientTransform="matrix(36.72081,-18.71019,18.71019,36.72081,346.46826,174.72656)"
       spreadMethod="pad"
       id="linearGradient1052">
      <stop
         style="stop-opacity:1;stop-color:#1478c7"
         offset="0"
         id="stop1054" />
      <stop
         style="stop-opacity:1;stop-color:#721f90"
         offset="0.490906"
         id="stop1056" />
      <stop
         style="stop-opacity:1;stop-color:#ed1c24"
         offset="1"
         id="stop1058" />
    </linearGradient>
    <clipPath
       clipPathUnits="userSpaceOnUse"
       id="clipPath890">
      <path
         inkscape:connector-curvature="0"
         d="m 386.212,198.467 c -6.903,-10.545 -13.378,-21.848 1.01,-36.237 l 0,0 c -9.3,9.297 0.812,16.199 9.592,28.43 l 0,0 c 10.287,14.33 10.452,27.31 -3.736,41.502 l 0,0 c 8.607,-9.93 0.567,-22.346 -6.866,-33.695"
         id="path892" />
    </clipPath>
    <linearGradient
       x1="0"
       y1="0"
       x2="1"
       y2="0"
       gradientUnits="userSpaceOnUse"
       gradientTransform="matrix(-32.807678,-8.7907867,-8.7907867,32.807678,407.18359,201.75977)"
       spreadMethod="pad"
       id="linearGradient898">
      <stop
         style="stop-opacity:1;stop-color:#00a873"
         offset="0"
         id="stop900" />
      <stop
         style="stop-opacity:1;stop-color:#00adef"
         offset="0.490906"
         id="stop902" />
      <stop
         style="stop-opacity:1;stop-color:#1b64b8"
         offset="1"
         id="stop904" />
    </linearGradient>
    <clipPath
       clipPathUnits="userSpaceOnUse"
       id="clipPath868">
      <path
         inkscape:connector-curvature="0"
         d="m 360.399,212.517 c 8.778,-12.233 18.892,-19.134 9.59,-28.432 l 0,0 c 14.39,14.388 7.915,25.693 1.011,36.238 l 0,0 c -7.431,11.35 -15.473,23.765 -6.865,33.694 l 0,0 c -14.19,-14.19 -14.022,-27.17 -3.736,-41.5"
         id="path870" />
    </clipPath>
    <linearGradient
       x1="0"
       y1="0"
       x2="1"
       y2="0"
       gradientUnits="userSpaceOnUse"
       gradientTransform="matrix(32.807678,-8.7907867,8.7907867,32.807678,350.02881,223.61621)"
       spreadMethod="pad"
       id="linearGradient876">
      <stop
         style="stop-opacity:1;stop-color:#80d190"
         offset="0"
         id="stop878" />
      <stop
         style="stop-opacity:1;stop-color:#54c5b0"
         offset="0.490906"
         id="stop880" />
      <stop
         style="stop-opacity:1;stop-color:#00aab3"
         offset="1"
         id="stop882" />
    </linearGradient>
    <clipPath
       clipPathUnits="userSpaceOnUse"
       id="clipPath1152">
      <path
         inkscape:connector-curvature="0"
         d="m 526.812,379.535 c -0.005,0.021 -0.01,0.042 -0.015,0.063 l 0,0 c 0.005,-0.021 0.01,-0.042 0.015,-0.063 m 14.625,-10.047 c 6.481,0.181 14.047,0.551 15.516,-5.627 l 0,0 c -2.218,9.329 -7.628,12.493 -16.036,11.897 l 0,0 c -7.156,-0.507 -12.305,-3.65 -14.105,3.777 l 0,0 c 2.264,-9.399 8.619,-10.212 14.625,-10.047"
         id="path1154" />
    </clipPath>
    <linearGradient
       x1="0"
       y1="0"
       x2="1"
       y2="0"
       gradientUnits="userSpaceOnUse"
       gradientTransform="matrix(-24.998428,-5.9468689,-5.9468689,24.998428,554.37402,374.70361)"
       spreadMethod="pad"
       id="linearGradient1160">
      <stop
         style="stop-opacity:1;stop-color:#80d190"
         offset="0"
         id="stop1162" />
      <stop
         style="stop-opacity:1;stop-color:#54c5b0"
         offset="0.490906"
         id="stop1164" />
      <stop
         style="stop-opacity:1;stop-color:#00aab3"
         offset="1"
         id="stop1166" />
    </linearGradient>
    <clipPath
       clipPathUnits="userSpaceOnUse"
       id="clipPath1130">
      <path
         inkscape:connector-curvature="0"
         d="m 543.341,382.448 c 8.873,-4.347 19.346,-9.207 16.954,-18.587 l 0,0 c 3.614,14.164 -1.445,22.267 -13.215,27.419 l 0,0 c -10.046,4.398 -19.246,3.788 -16.339,15.186 l 0,0 c -3.664,-14.364 4.356,-19.978 12.6,-24.018"
         id="path1132" />
    </clipPath>
    <linearGradient
       x1="0"
       y1="0"
       x2="1"
       y2="0"
       gradientUnits="userSpaceOnUse"
       gradientTransform="matrix(-37.953567,9.6839752,9.6839752,37.953583,564.49512,380.32129)"
       spreadMethod="pad"
       id="linearGradient1138">
      <stop
         style="stop-opacity:1;stop-color:#80d190"
         offset="0"
         id="stop1140" />
      <stop
         style="stop-opacity:1;stop-color:#54c5b0"
         offset="0.490906"
         id="stop1142" />
      <stop
         style="stop-opacity:1;stop-color:#00aab3"
         offset="1"
         id="stop1144" />
    </linearGradient>
    <clipPath
       clipPathUnits="userSpaceOnUse"
       id="clipPath1108">
      <path
         inkscape:connector-curvature="0"
         d="m 551.213,399.707 c 9.041,-11.685 19.889,-25.113 10.496,-36.121 l 0,0 c 14.188,16.624 12.742,30.832 0.346,45.507 l 0,0 c -10.582,12.525 -23.328,17.774 -11.909,31.151 l 0,0 c -14.39,-16.857 -7.332,-29.679 1.067,-40.537"
         id="path1110" />
    </clipPath>
    <linearGradient
       x1="0"
       y1="0"
       x2="1"
       y2="0"
       gradientUnits="userSpaceOnUse"
       gradientTransform="matrix(-44.542984,38.020218,38.020218,44.542984,578.19922,382.9043)"
       spreadMethod="pad"
       id="linearGradient1116">
      <stop
         style="stop-opacity:1;stop-color:#80d190"
         offset="0"
         id="stop1118" />
      <stop
         style="stop-opacity:1;stop-color:#54c5b0"
         offset="0.490906"
         id="stop1120" />
      <stop
         style="stop-opacity:1;stop-color:#00aab3"
         offset="1"
         id="stop1122" />
    </linearGradient>
    <clipPath
       clipPathUnits="userSpaceOnUse"
       id="clipPath1086">
      <path
         inkscape:connector-curvature="0"
         d="m 576.746,406.183 c 0.793,-18.596 1.559,-38.877 -15.558,-44.538 l 0,0 c 26.687,6.765 35.602,22.184 33.535,46.298 l 0,0 c -1.765,20.581 -8.839,35.814 8.652,40.247 l 0,0 c -27.064,-6.863 -27.363,-24.731 -26.629,-42.007"
         id="path1088" />
    </clipPath>
    <linearGradient
       x1="0"
       y1="0"
       x2="1"
       y2="0"
       gradientUnits="userSpaceOnUse"
       gradientTransform="matrix(-32.503311,33.392212,-33.392212,-32.503311,599.1582,387.57959)"
       spreadMethod="pad"
       id="linearGradient1094">
      <stop
         style="stop-opacity:1;stop-color:#80d190"
         offset="0"
         id="stop1096" />
      <stop
         style="stop-opacity:1;stop-color:#54c5b0"
         offset="0.490906"
         id="stop1098" />
      <stop
         style="stop-opacity:1;stop-color:#00aab3"
         offset="1"
         id="stop1100" />
    </linearGradient>
    <clipPath
       clipPathUnits="userSpaceOnUse"
       id="clipPath1022">
      <path
         inkscape:connector-curvature="0"
         d="m 590.759,227 c -3.18,-4.857 -6.162,-10.063 0.465,-16.691 l 0,0 c -4.284,4.282 0.375,7.462 4.418,13.095 l 0,0 c 4.738,6.601 4.815,12.58 -1.721,19.115 l 0,0 c 3.964,-4.572 0.262,-10.29 -3.162,-15.519"
         id="path1024" />
    </clipPath>
    <linearGradient
       x1="0"
       y1="0"
       x2="1"
       y2="0"
       gradientUnits="userSpaceOnUse"
       gradientTransform="matrix(-15.111313,-4.049057,-4.049057,15.111313,600.41895,228.5166)"
       spreadMethod="pad"
       id="linearGradient1030">
      <stop
         style="stop-opacity:1;stop-color:#00a873"
         offset="0"
         id="stop1032" />
      <stop
         style="stop-opacity:1;stop-color:#00adef"
         offset="0.490906"
         id="stop1034" />
      <stop
         style="stop-opacity:1;stop-color:#1b64b8"
         offset="1"
         id="stop1036" />
    </linearGradient>
    <clipPath
       clipPathUnits="userSpaceOnUse"
       id="clipPath1000">
      <path
         inkscape:connector-curvature="0"
         d="m 564.278,227 c -3.18,-4.857 -6.162,-10.063 0.466,-16.691 l 0,0 c -4.285,4.282 0.374,7.462 4.417,13.095 l 0,0 c 4.738,6.601 4.815,12.58 -1.722,19.115 l 0,0 c 3.966,-4.572 0.262,-10.29 -3.161,-15.519"
         id="path1002" />
    </clipPath>
    <linearGradient
       x1="0"
       y1="0"
       x2="1"
       y2="0"
       gradientUnits="userSpaceOnUse"
       gradientTransform="matrix(-15.11084,-4.0489349,-4.0489349,15.11084,573.93652,228.5166)"
       spreadMethod="pad"
       id="linearGradient1008">
      <stop
         style="stop-opacity:1;stop-color:#00a873"
         offset="0"
         id="stop1010" />
      <stop
         style="stop-opacity:1;stop-color:#00adef"
         offset="0.490906"
         id="stop1012" />
      <stop
         style="stop-opacity:1;stop-color:#1b64b8"
         offset="1"
         id="stop1014" />
    </linearGradient>
    <clipPath
       clipPathUnits="userSpaceOnUse"
       id="clipPath978">
      <path
         inkscape:connector-curvature="0"
         d="m 538.43,227 c -3.181,-4.857 -6.165,-10.063 0.465,-16.691 l 0,0 c -4.287,4.282 0.372,7.462 4.416,13.095 l 0,0 c 4.739,6.601 4.815,12.58 -1.722,19.115 l 0,0 c 3.966,-4.572 0.262,-10.29 -3.159,-15.519"
         id="path980" />
    </clipPath>
    <linearGradient
       x1="0"
       y1="0"
       x2="1"
       y2="0"
       gradientUnits="userSpaceOnUse"
       gradientTransform="matrix(-15.111069,-4.048996,-4.048996,15.111069,548.08789,228.51758)"
       spreadMethod="pad"
       id="linearGradient986">
      <stop
         style="stop-opacity:1;stop-color:#00a873"
         offset="0"
         id="stop988" />
      <stop
         style="stop-opacity:1;stop-color:#00adef"
         offset="0.490906"
         id="stop990" />
      <stop
         style="stop-opacity:1;stop-color:#1b64b8"
         offset="1"
         id="stop992" />
    </linearGradient>
    <clipPath
       clipPathUnits="userSpaceOnUse"
       id="clipPath956">
      <path
         inkscape:connector-curvature="0"
         d="m 587.965,173.303 c -6.902,-10.545 -13.377,-21.847 1.011,-36.237 l 0,0 c -9.301,9.299 0.811,16.2 9.592,28.431 l 0,0 c 10.286,14.33 10.452,27.311 -3.736,41.501 l 0,0 c 8.608,-9.929 0.566,-22.345 -6.867,-33.695"
         id="path958" />
    </clipPath>
    <linearGradient
       x1="0"
       y1="0"
       x2="1"
       y2="0"
       gradientUnits="userSpaceOnUse"
       gradientTransform="matrix(-32.807907,-8.7908478,-8.7908478,32.807907,608.9375,176.59668)"
       spreadMethod="pad"
       id="linearGradient964">
      <stop
         style="stop-opacity:1;stop-color:#00a873"
         offset="0"
         id="stop966" />
      <stop
         style="stop-opacity:1;stop-color:#00adef"
         offset="0.490906"
         id="stop968" />
      <stop
         style="stop-opacity:1;stop-color:#1b64b8"
         offset="1"
         id="stop970" />
    </linearGradient>
    <clipPath
       clipPathUnits="userSpaceOnUse"
       id="clipPath934">
      <path
         inkscape:connector-curvature="0"
         d="m 561.486,173.303 c -6.904,-10.545 -13.38,-21.847 1.009,-36.237 l 0,0 c -9.302,9.299 0.811,16.2 9.592,28.431 l 0,0 c 10.286,14.33 10.453,27.311 -3.736,41.501 l 0,0 c 8.607,-9.929 0.567,-22.345 -6.865,-33.695"
         id="path936" />
    </clipPath>
    <linearGradient
       x1="0"
       y1="0"
       x2="1"
       y2="0"
       gradientUnits="userSpaceOnUse"
       gradientTransform="matrix(-32.808151,-8.7909241,-8.7909241,32.808151,582.45703,176.59766)"
       spreadMethod="pad"
       id="linearGradient942">
      <stop
         style="stop-opacity:1;stop-color:#00a873"
         offset="0"
         id="stop944" />
      <stop
         style="stop-opacity:1;stop-color:#00adef"
         offset="0.490906"
         id="stop946" />
      <stop
         style="stop-opacity:1;stop-color:#1b64b8"
         offset="1"
         id="stop948" />
    </linearGradient>
    <clipPath
       clipPathUnits="userSpaceOnUse"
       id="clipPath912">
      <path
         inkscape:connector-curvature="0"
         d="m 535.636,173.303 c -6.902,-10.545 -13.38,-21.847 1.01,-36.237 l 0,0 c -9.301,9.299 0.812,16.2 9.591,28.431 l 0,0 c 10.286,14.33 10.453,27.311 -3.736,41.501 l 0,0 c 8.609,-9.929 0.566,-22.345 -6.865,-33.695"
         id="path914" />
    </clipPath>
    <linearGradient
       x1="0"
       y1="0"
       x2="1"
       y2="0"
       gradientUnits="userSpaceOnUse"
       gradientTransform="matrix(-32.807907,-8.7908478,-8.7908478,32.807907,556.60742,176.59668)"
       spreadMethod="pad"
       id="linearGradient920">
      <stop
         style="stop-opacity:1;stop-color:#00a873"
         offset="0"
         id="stop922" />
      <stop
         style="stop-opacity:1;stop-color:#00adef"
         offset="0.490906"
         id="stop924" />
      <stop
         style="stop-opacity:1;stop-color:#1b64b8"
         offset="1"
         id="stop926" />
    </linearGradient>
    <clipPath
       clipPathUnits="userSpaceOnUse"
       id="clipPath1022-3">
      <path
         inkscape:connector-curvature="0"
         d="m 590.759,227 c -3.18,-4.857 -6.162,-10.063 0.465,-16.691 l 0,0 c -4.284,4.282 0.375,7.462 4.418,13.095 l 0,0 c 4.738,6.601 4.815,12.58 -1.721,19.115 l 0,0 c 3.964,-4.572 0.262,-10.29 -3.162,-15.519"
         id="path1024-3" />
    </clipPath>
    <linearGradient
       x1="0"
       y1="0"
       x2="1"
       y2="0"
       gradientUnits="userSpaceOnUse"
       gradientTransform="matrix(-15.111313,-4.049057,-4.049057,15.111313,600.41895,228.5166)"
       spreadMethod="pad"
       id="linearGradient1030-2">
      <stop
         style="stop-opacity:1;stop-color:#00a873"
         offset="0"
         id="stop1032-3" />
      <stop
         style="stop-opacity:1;stop-color:#00adef"
         offset="0.490906"
         id="stop1034-1" />
      <stop
         style="stop-opacity:1;stop-color:#1b64b8"
         offset="1"
         id="stop1036-2" />
    </linearGradient>
    <clipPath
       clipPathUnits="userSpaceOnUse"
       id="clipPath1000-5">
      <path
         inkscape:connector-curvature="0"
         d="m 564.278,227 c -3.18,-4.857 -6.162,-10.063 0.466,-16.691 l 0,0 c -4.285,4.282 0.374,7.462 4.417,13.095 l 0,0 c 4.738,6.601 4.815,12.58 -1.722,19.115 l 0,0 c 3.966,-4.572 0.262,-10.29 -3.161,-15.519"
         id="path1002-0" />
    </clipPath>
    <linearGradient
       x1="0"
       y1="0"
       x2="1"
       y2="0"
       gradientUnits="userSpaceOnUse"
       gradientTransform="matrix(-15.11084,-4.0489349,-4.0489349,15.11084,573.93652,228.5166)"
       spreadMethod="pad"
       id="linearGradient1008-3">
      <stop
         style="stop-opacity:1;stop-color:#00a873"
         offset="0"
         id="stop1010-2" />
      <stop
         style="stop-opacity:1;stop-color:#00adef"
         offset="0.490906"
         id="stop1012-6" />
      <stop
         style="stop-opacity:1;stop-color:#1b64b8"
         offset="1"
         id="stop1014-4" />
    </linearGradient>
    <clipPath
       clipPathUnits="userSpaceOnUse"
       id="clipPath978-0">
      <path
         inkscape:connector-curvature="0"
         d="m 538.43,227 c -3.181,-4.857 -6.165,-10.063 0.465,-16.691 l 0,0 c -4.287,4.282 0.372,7.462 4.416,13.095 l 0,0 c 4.739,6.601 4.815,12.58 -1.722,19.115 l 0,0 c 3.966,-4.572 0.262,-10.29 -3.159,-15.519"
         id="path980-5" />
    </clipPath>
    <linearGradient
       x1="0"
       y1="0"
       x2="1"
       y2="0"
       gradientUnits="userSpaceOnUse"
       gradientTransform="matrix(-15.111069,-4.048996,-4.048996,15.111069,548.08789,228.51758)"
       spreadMethod="pad"
       id="linearGradient986-0">
      <stop
         style="stop-opacity:1;stop-color:#00a873"
         offset="0"
         id="stop988-0" />
      <stop
         style="stop-opacity:1;stop-color:#00adef"
         offset="0.490906"
         id="stop990-4" />
      <stop
         style="stop-opacity:1;stop-color:#1b64b8"
         offset="1"
         id="stop992-3" />
    </linearGradient>
    <clipPath
       clipPathUnits="userSpaceOnUse"
       id="clipPath56">
      <path
         inkscape:connector-curvature="0"
         d="m 474.565,648.044 c 9.658,-16.831 12.431,-37.224 6.852,-56.537 l 0,0 c -0.196,0.292 -0.408,0.567 -0.599,0.863 l 0,0 c -4.096,6.305 -7.138,12.977 -9.17,19.794 l 0,0 c -2.642,8.858 -3.578,17.962 -2.903,26.827 l 0,0 c -4.565,-15.156 -4.05,-31.998 2.041,-47.714 l 0,0 c 0.161,-0.414 0.324,-0.828 0.493,-1.241 l 0,0 c -11.758,-1.969 -22.497,-6.74 -31.583,-13.546 l 0,0 c 3.162,-4.151 6.323,-8.302 9.485,-12.453 l 0,0 c 4.647,3.791 9.774,7.028 15.286,9.598 l 0,0 c 8.208,3.828 17.271,6.178 26.875,6.681 l 0,0 c 17.27,0.906 33.44,-4.281 46.454,-13.665 l 0,0 c -11.092,12.409 -26.322,20.96 -43.382,23.56 l 0,0 c 0.373,0.958 0.724,1.92 1.054,2.884 l 0,0 c 5.65,16.539 5.018,34.08 -0.946,49.643 l 0,0 c -2.245,5.856 -5.245,11.433 -8.949,16.57 l 0,0 c -4.062,-3.359 -7.763,-7.125 -11.008,-11.264"
         id="path58" />
    </clipPath>
    <clipPath
       clipPathUnits="userSpaceOnUse"
       id="clipPath1130-2">
      <path
         inkscape:connector-curvature="0"
         d="m 543.341,382.448 c 8.873,-4.347 19.346,-9.207 16.954,-18.587 l 0,0 c 3.614,14.164 -1.445,22.267 -13.215,27.419 l 0,0 c -10.046,4.398 -19.246,3.788 -16.339,15.186 l 0,0 c -3.664,-14.364 4.356,-19.978 12.6,-24.018"
         id="path1132-8" />
    </clipPath>
    <linearGradient
       x1="0"
       y1="0"
       x2="1"
       y2="0"
       gradientUnits="userSpaceOnUse"
       gradientTransform="matrix(-37.953567,9.6839752,9.6839752,37.953583,564.49512,380.32129)"
       spreadMethod="pad"
       id="linearGradient1138-4">
      <stop
         style="stop-opacity:1;stop-color:#80d190"
         offset="0"
         id="stop1140-9" />
      <stop
         style="stop-opacity:1;stop-color:#54c5b0"
         offset="0.490906"
         id="stop1142-9" />
      <stop
         style="stop-opacity:1;stop-color:#00aab3"
         offset="1"
         id="stop1144-6" />
    </linearGradient>
    <clipPath
       clipPathUnits="userSpaceOnUse"
       id="clipPath1108-4">
      <path
         inkscape:connector-curvature="0"
         d="m 551.213,399.707 c 9.041,-11.685 19.889,-25.113 10.496,-36.121 l 0,0 c 14.188,16.624 12.742,30.832 0.346,45.507 l 0,0 c -10.582,12.525 -23.328,17.774 -11.909,31.151 l 0,0 c -14.39,-16.857 -7.332,-29.679 1.067,-40.537"
         id="path1110-4" />
    </clipPath>
    <linearGradient
       x1="0"
       y1="0"
       x2="1"
       y2="0"
       gradientUnits="userSpaceOnUse"
       gradientTransform="matrix(-44.542984,38.020218,38.020218,44.542984,578.19922,382.9043)"
       spreadMethod="pad"
       id="linearGradient1116-9">
      <stop
         style="stop-opacity:1;stop-color:#80d190"
         offset="0"
         id="stop1118-3" />
      <stop
         style="stop-opacity:1;stop-color:#54c5b0"
         offset="0.490906"
         id="stop1120-9" />
      <stop
         style="stop-opacity:1;stop-color:#00aab3"
         offset="1"
         id="stop1122-4" />
    </linearGradient>
    <clipPath
       clipPathUnits="userSpaceOnUse"
       id="clipPath1086-5">
      <path
         inkscape:connector-curvature="0"
         d="m 576.746,406.183 c 0.793,-18.596 1.559,-38.877 -15.558,-44.538 l 0,0 c 26.687,6.765 35.602,22.184 33.535,46.298 l 0,0 c -1.765,20.581 -8.839,35.814 8.652,40.247 l 0,0 c -27.064,-6.863 -27.363,-24.731 -26.629,-42.007"
         id="path1088-0" />
    </clipPath>
    <linearGradient
       x1="0"
       y1="0"
       x2="1"
       y2="0"
       gradientUnits="userSpaceOnUse"
       gradientTransform="matrix(-32.503311,33.392212,-33.392212,-32.503311,599.1582,387.57959)"
       spreadMethod="pad"
       id="linearGradient1094-4">
      <stop
         style="stop-opacity:1;stop-color:#80d190"
         offset="0"
         id="stop1096-1" />
      <stop
         style="stop-opacity:1;stop-color:#54c5b0"
         offset="0.490906"
         id="stop1098-5" />
      <stop
         style="stop-opacity:1;stop-color:#00aab3"
         offset="1"
         id="stop1100-4" />
    </linearGradient>
    <clipPath
       clipPathUnits="userSpaceOnUse"
       id="clipPath56-2">
      <path
         inkscape:connector-curvature="0"
         d="m 474.565,648.044 c 9.658,-16.831 12.431,-37.224 6.852,-56.537 l 0,0 c -0.196,0.292 -0.408,0.567 -0.599,0.863 l 0,0 c -4.096,6.305 -7.138,12.977 -9.17,19.794 l 0,0 c -2.642,8.858 -3.578,17.962 -2.903,26.827 l 0,0 c -4.565,-15.156 -4.05,-31.998 2.041,-47.714 l 0,0 c 0.161,-0.414 0.324,-0.828 0.493,-1.241 l 0,0 c -11.758,-1.969 -22.497,-6.74 -31.583,-13.546 l 0,0 c 3.162,-4.151 6.323,-8.302 9.485,-12.453 l 0,0 c 4.647,3.791 9.774,7.028 15.286,9.598 l 0,0 c 8.208,3.828 17.271,6.178 26.875,6.681 l 0,0 c 17.27,0.906 33.44,-4.281 46.454,-13.665 l 0,0 c -11.092,12.409 -26.322,20.96 -43.382,23.56 l 0,0 c 0.373,0.958 0.724,1.92 1.054,2.884 l 0,0 c 5.65,16.539 5.018,34.08 -0.946,49.643 l 0,0 c -2.245,5.856 -5.245,11.433 -8.949,16.57 l 0,0 c -4.062,-3.359 -7.763,-7.125 -11.008,-11.264"
         id="path58-4" />
    </clipPath>
    <clipPath
       clipPathUnits="userSpaceOnUse"
       id="clipPath56-2-9">
      <path
         inkscape:connector-curvature="0"
         d="m 474.565,648.044 c 9.658,-16.831 12.431,-37.224 6.852,-56.537 l 0,0 c -0.196,0.292 -0.408,0.567 -0.599,0.863 l 0,0 c -4.096,6.305 -7.138,12.977 -9.17,19.794 l 0,0 c -2.642,8.858 -3.578,17.962 -2.903,26.827 l 0,0 c -4.565,-15.156 -4.05,-31.998 2.041,-47.714 l 0,0 c 0.161,-0.414 0.324,-0.828 0.493,-1.241 l 0,0 c -11.758,-1.969 -22.497,-6.74 -31.583,-13.546 l 0,0 c 3.162,-4.151 6.323,-8.302 9.485,-12.453 l 0,0 c 4.647,3.791 9.774,7.028 15.286,9.598 l 0,0 c 8.208,3.828 17.271,6.178 26.875,6.681 l 0,0 c 17.27,0.906 33.44,-4.281 46.454,-13.665 l 0,0 c -11.092,12.409 -26.322,20.96 -43.382,23.56 l 0,0 c 0.373,0.958 0.724,1.92 1.054,2.884 l 0,0 c 5.65,16.539 5.018,34.08 -0.946,49.643 l 0,0 c -2.245,5.856 -5.245,11.433 -8.949,16.57 l 0,0 c -4.062,-3.359 -7.763,-7.125 -11.008,-11.264"
         id="path58-4-9" />
    </clipPath>
    <clipPath
       clipPathUnits="userSpaceOnUse"
       id="clipPath56-2-7">
      <path
         inkscape:connector-curvature="0"
         d="m 474.565,648.044 c 9.658,-16.831 12.431,-37.224 6.852,-56.537 l 0,0 c -0.196,0.292 -0.408,0.567 -0.599,0.863 l 0,0 c -4.096,6.305 -7.138,12.977 -9.17,19.794 l 0,0 c -2.642,8.858 -3.578,17.962 -2.903,26.827 l 0,0 c -4.565,-15.156 -4.05,-31.998 2.041,-47.714 l 0,0 c 0.161,-0.414 0.324,-0.828 0.493,-1.241 l 0,0 c -11.758,-1.969 -22.497,-6.74 -31.583,-13.546 l 0,0 c 3.162,-4.151 6.323,-8.302 9.485,-12.453 l 0,0 c 4.647,3.791 9.774,7.028 15.286,9.598 l 0,0 c 8.208,3.828 17.271,6.178 26.875,6.681 l 0,0 c 17.27,0.906 33.44,-4.281 46.454,-13.665 l 0,0 c -11.092,12.409 -26.322,20.96 -43.382,23.56 l 0,0 c 0.373,0.958 0.724,1.92 1.054,2.884 l 0,0 c 5.65,16.539 5.018,34.08 -0.946,49.643 l 0,0 c -2.245,5.856 -5.245,11.433 -8.949,16.57 l 0,0 c -4.062,-3.359 -7.763,-7.125 -11.008,-11.264"
         id="path58-4-1" />
    </clipPath>
    <clipPath
       clipPathUnits="userSpaceOnUse"
       id="clipPath5276">
      <path
         inkscape:connector-curvature="0"
         d="m 1807.54,3228.03 c 0,0 -165.57,109.3 -433.69,-44.24 -268.12,-153.45 -355.6,-245.04 -456.354,-280.72 -100.777,-35.64 -167.918,-3.35 -167.918,-3.35 0,0 173.735,-98.06 423.272,46.64 249.53,144.71 485.54,329.94 634.69,281.67 z m 830.35,144.92 c 0,0 -70.52,85.14 25.67,372.5 141.56,422.84 71.2,543.11 24.62,620.14 -44.96,74.48 -77.04,107.05 -77.04,107.05 0,0 104.91,-128.96 49.22,-367.66 -55.62,-238.64 -199.06,-517.98 -22.47,-732.03 z m 704.82,162.71 c 0,0 -86.84,70.45 -158.78,19.27 -64.08,-45.59 -134.86,-220.74 -202,-257.61 -67.17,-36.87 -186.98,35.22 -133.01,292.2 53.97,256.98 32.24,319.9 -2.43,389.27 -32.74,65.51 -92.3,88.87 -92.3,88.87 0,0 94.94,-58.77 -4.44,-301.6 -71.84,-175.51 -186.57,-466.61 -25.53,-588.59 127.42,-96.59 280.63,-59.78 348.05,101.46 67.05,160.52 99.5,248.71 152.52,274.55 54.26,26.41 117.92,-17.82 117.92,-17.82 z m -0.3,-0.06 c 0,0 -99.47,26.81 -159.13,-210.56 -52.02,-206.87 -136.7,-372.98 -466.36,-381.04 -375.39,-9.09 -779.08,318.92 -1018.84,337.14 -239.73,18.2 -374.6,-116.67 -374.6,-116.67 0,0 99.57,109.17 308.27,141.3 208.7,32.12 405.6,-13.92 661.42,-123.06 255.77,-109.18 454.82,-158.2 619.6,-122.88 164.84,35.34 218.46,182.88 262.27,319.24 65.26,203.23 167.37,156.53 167.37,156.53 z"
         id="path5278" />
    </clipPath>
  </defs>
  <sodipodi:namedview
     id="base"
     pagecolor="#ffffff"
     bordercolor="#666666"
     borderopacity="1.0"
     inkscape:pageopacity="0.0"
     inkscape:pageshadow="2"
     inkscape:zoom="2.8192852"
     inkscape:cx="64.302781"
     inkscape:cy="46.045933"
     inkscape:document-units="px"
     inkscape:current-layer="svg2"
     showgrid="false"
     inkscape:window-width="1366"
     inkscape:window-height="705"
     inkscape:window-x="0"
     inkscape:window-y="0"
     inkscape:window-maximized="1"
     showguides="true"
     inkscape:guide-bbox="true"
     fit-margin-top="0"
     fit-margin-left="0"
     fit-margin-right="0"
     fit-margin-bottom="0" />
  <metadata
     id="metadata7">
    <rdf:RDF>
      <cc:Work
         rdf:about="">
        <dc:format>image/svg+xml</dc:format>
        <dc:type
           rdf:resource="http://purl.org/dc/dcmitype/StillImage" />
        <dc:title />
      </cc:Work>
    </rdf:RDF>
  </metadata>
  <g
     inkscape:label="Layer 1"
     inkscape:groupmode="layer"
     id="layer1"
     transform="translate(-177.0763,-86.203343)">
    <g
       transform="matrix(1.1202711,0,0,-1.0002613,-315.50284,745.68362)"
       id="g52-8-2"
       style="fill:#ffffff">
      <g
         id="g54-5-6"
         clip-path="url(#clipPath56-2-9)"
         style="fill:#ffffff">
        <g
           id="g60-4-8"
           style="fill:#ffffff">
          <g
             id="g62-4-4"
             transform="scale(1,-1)"
             style="fill:#ffffff">
            <g
               id="g64-0-8"
               style="fill:#ffffff">
              <path
                 inkscape:connector-curvature="0"
                 d="m 449.18075,-564.0374 c -1.95117,-2.5625 -3.90332,-5.125 -5.85449,-7.6875 2.18261,-0.64161 4.49121,-1.31544 6.91015,-1.98633 2.03907,1.95849 4.20606,3.07812 6.2627,4.41699 -2.55176,1.6045 -4.99512,3.36133 -7.31836,5.25684 z"
                 style="fill:#ffffff;fill-opacity:1;fill-rule:nonzero;stroke:none"
                 id="path66-6-2" />
              <path
                 inkscape:connector-curvature="0"
                 d="m 456.49911,-569.29424 c -2.05664,-1.33887 -4.22363,-2.4585 -6.2627,-4.41699 1.20899,-0.33545 2.44629,-0.66993 3.70899,-1.00001 2.09961,1.54297 4.33105,2.6294 6.46094,3.12647 -1.32813,0.72412 -2.63086,1.48829 -3.90723,2.29053 z"
                 style="fill:#ffffff;fill-opacity:1;fill-rule:nonzero;stroke:none"
                 id="path68-8-2" />
              <path
                 inkscape:connector-curvature="0"
                 d="m 460.40634,-571.58477 c -2.12989,-0.49707 -4.36133,-1.5835 -6.46094,-3.12647 1.26269,-0.32959 2.55078,-0.65429 3.86328,-0.96972 2.12695,1.354 4.49512,1.93066 6.65821,2.04541 -1.37793,0.64258 -2.73243,1.32666 -4.06055,2.05078 z"
                 style="fill:#ffffff;fill-opacity:1;fill-rule:nonzero;stroke:none"
                 id="path70-4-1" />
              <path
                 inkscape:connector-curvature="0"
                 d="m 443.32626,-571.7249 c -1.20996,-1.58839 -2.41993,-3.17677 -3.62989,-4.76515 2.57618,0.006 5.28223,-0.12451 8.10059,-0.3457 0.48828,1.10938 1.25293,1.96094 2.43945,3.12452 -2.41894,0.67089 -4.72754,1.34472 -6.91015,1.98633 z"
                 style="fill:#ffffff;fill-opacity:1;fill-rule:nonzero;stroke:none"
                 id="path72-3-1" />
              <path
                 inkscape:connector-curvature="0"
                 d="m 450.23641,-573.71123 c -1.18652,-1.16358 -1.95117,-2.01514 -2.43945,-3.12452 1.40918,-0.11084 2.8457,-0.24365 4.3086,-0.39355 -0.009,0.78027 0.66992,1.64648 1.83984,2.51806 -1.2627,0.33008 -2.5,0.66456 -3.70899,1.00001 z"
                 style="fill:#ffffff;fill-opacity:1;fill-rule:nonzero;stroke:none"
                 id="path74-5-2" />
              <path
                 inkscape:connector-curvature="0"
                 d="m 453.9454,-574.71124 c -1.16992,-0.87158 -1.84863,-1.73779 -1.83984,-2.51806 1.46289,-0.14991 2.95117,-0.31592 4.46191,-0.49317 -0.23437,0.63037 0.0791,1.30225 1.24121,2.04151 -1.3125,0.31543 -2.60059,0.64013 -3.86328,0.96972 z"
                 style="fill:#ffffff;fill-opacity:1;fill-rule:nonzero;stroke:none"
                 id="path76-1-9" />
              <path
                 inkscape:connector-curvature="0"
                 d="m 439.69637,-576.49005 c 3.63379,-2.72217 7.53223,-5.11865 11.6543,-7.14063 1.75684,0.97022 3.65235,1.55713 5.66309,1.83643 -3.41309,1.69043 -7.12695,2.86035 -9.2168,4.9585 -2.81836,0.22119 -5.52441,0.35205 -8.10059,0.3457 z"
                 style="fill:#ffffff;fill-opacity:1;fill-rule:nonzero;stroke:none"
                 id="path78-7-2" />
              <path
                 inkscape:connector-curvature="0"
                 d="m 447.79696,-576.83575 c 2.08985,-2.09815 5.80371,-3.26807 9.2168,-4.9585 1.00488,0.13965 2.03906,0.20215 3.09766,0.19727 -2.92481,1.46289 -6.97657,2.69873 -8.00586,4.36768 -1.4629,0.1499 -2.89942,0.28271 -4.3086,0.39355 z"
                 style="fill:#ffffff;fill-opacity:1;fill-rule:nonzero;stroke:none"
                 id="path80-3-4" />
              <path
                 inkscape:connector-curvature="0"
                 d="m 452.10556,-577.2293 c 1.02929,-1.66895 5.08105,-2.90479 8.00586,-4.36768 1.05859,-0.005 2.14257,-0.0771 3.24902,-0.20704 -2.70215,1.35938 -6.24512,2.60792 -6.79297,4.08155 -1.51074,0.17725 -2.99902,0.34326 -4.46191,0.49317 z"
                 style="fill:#ffffff;fill-opacity:1;fill-rule:nonzero;stroke:none"
                 id="path82-1-1" />
              <path
                 inkscape:connector-curvature="0"
                 d="m 451.35067,-583.63068 c 3.09278,-1.51709 6.31055,-2.82324 9.6377,-3.89795 0.69043,0.76416 1.47461,1.40576 2.31934,1.92725 -3.22559,0.77099 -6.39161,1.75683 -9.22169,3.14795 -0.94433,-0.30274 -1.85742,-0.69238 -2.73535,-1.17725 z"
                 style="fill:#ffffff;fill-opacity:1;fill-rule:nonzero;stroke:none"
                 id="path84-1-7" />
              <path
                 inkscape:connector-curvature="0"
                 d="m 454.08602,-582.45343 c 2.83008,-1.39112 5.9961,-2.37696 9.22169,-3.14795 0.84472,0.52148 1.75097,0.92285 2.68554,1.20654 -3.34277,0.65381 -6.72754,1.48633 -8.97949,2.60059 -1.00586,-0.13965 -1.98242,-0.35645 -2.92774,-0.65918 z"
                 style="fill:#ffffff;fill-opacity:1;fill-rule:nonzero;stroke:none"
                 id="path86-7-3" />
              <path
                 inkscape:connector-curvature="0"
                 d="m 460.98837,-587.52863 c 3.32617,-1.07422 6.7627,-1.91748 10.29004,-2.5083 0.50293,1.04248 1.04395,1.89697 1.61914,2.57812 -3.07617,0.53077 -6.36426,1.08643 -9.58984,1.85743 -0.84473,-0.52149 -1.62891,-1.16309 -2.31934,-1.92725 z"
                 style="fill:#ffffff;fill-opacity:1;fill-rule:nonzero;stroke:none"
                 id="path88-3-7" />
              <path
                 inkscape:connector-curvature="0"
                 d="m 463.30771,-585.60138 c 3.22558,-0.771 6.51367,-1.32666 9.58984,-1.85743 0.5752,0.68116 1.18555,1.18848 1.8252,1.5376 -2.08594,0.39844 -5.38672,0.87305 -8.7295,1.52637 -0.93457,-0.28369 -1.84082,-0.68506 -2.68554,-1.20654 z"
                 style="fill:#ffffff;fill-opacity:1;fill-rule:nonzero;stroke:none"
                 id="path90-2-3" />
              <path
                 inkscape:connector-curvature="0"
                 d="m 457.01376,-581.79425 c 2.25195,-1.11426 5.63672,-1.94678 8.97949,-2.60059 0.93457,0.28369 1.89942,0.4502 2.86036,0.50098 -3.46094,0.6582 -7.06739,1.45947 -8.74219,2.29688 -1.0586,0.005 -2.09278,-0.0576 -3.09766,-0.19727 z"
                 style="fill:#ffffff;fill-opacity:1;fill-rule:nonzero;stroke:none"
                 id="path92-3-1" />
              <path
                 inkscape:connector-curvature="0"
                 d="m 460.11142,-581.59698 c 1.6748,-0.83741 5.28125,-1.63868 8.74219,-2.29688 0.96093,0.0508 1.91992,-0.0137 2.84375,-0.19092 -3.36622,0.72119 -6.92383,1.56934 -8.33692,2.28076 -1.10645,0.12989 -2.19043,0.20215 -3.24902,0.20704 z"
                 style="fill:#ffffff;fill-opacity:1;fill-rule:nonzero;stroke:none"
                 id="path94-6-3" />
              <path
                 inkscape:connector-curvature="0"
                 d="m 465.99325,-584.39484 c 3.34278,-0.65332 6.64356,-1.12793 8.7295,-1.52637 0.63965,0.34912 1.30859,0.54004 2.0039,0.58692 -1.0957,0.26611 -4.41211,0.78222 -7.87304,1.44043 -0.96094,-0.0508 -1.92579,-0.21729 -2.86036,-0.50098 z"
                 style="fill:#ffffff;fill-opacity:1;fill-rule:nonzero;stroke:none"
                 id="path96-8-9" />
              <path
                 inkscape:connector-curvature="0"
                 d="m 468.85361,-583.89386 c 3.46093,-0.65821 6.77734,-1.17432 7.87304,-1.44043 0.69434,0.0474 1.41407,-0.0488 2.1543,-0.27295 -0.64453,0.20605 -3.81836,0.80127 -7.18359,1.52246 -0.92383,0.17725 -1.88282,0.2417 -2.84375,0.19092 z"
                 style="fill:#ffffff;fill-opacity:1;fill-rule:nonzero;stroke:none"
                 id="path98-4-6" />
              <path
                 inkscape:connector-curvature="0"
                 d="m 471.27841,-590.03693 c -0.16797,-0.4126 -0.33203,-0.82618 -0.49219,-1.24024 0.55371,1.1626 1.14551,2.13135 1.77149,2.9209 0.13574,0.35108 0.21093,0.54541 0.33984,0.89746 -0.57519,-0.68115 -1.11621,-1.53564 -1.61914,-2.57812 z"
                 style="fill:#ffffff;fill-opacity:1;fill-rule:nonzero;stroke:none"
                 id="path100-2-8" />
              <path
                 inkscape:connector-curvature="0"
                 d="m 472.89755,-587.45881 c -0.12891,-0.35205 -0.2041,-0.54638 -0.33984,-0.89746 0.62597,0.78955 1.28711,1.3999 1.97754,1.84717 0.082,0.21387 0.14453,0.36817 0.1875,0.58789 -0.63965,-0.34912 -1.25,-0.85644 -1.8252,-1.5376 z"
                 style="fill:#ffffff;fill-opacity:1;fill-rule:nonzero;stroke:none"
                 id="path102-5-3" />
              <path
                 inkscape:connector-curvature="0"
                 d="m 474.72275,-585.92121 c -0.043,-0.21972 -0.10547,-0.37402 -0.1875,-0.58789 0.69043,0.44727 1.41015,0.73047 2.15625,0.86572 0.0283,0.0757 0.0781,0.22266 0.0351,0.30909 -0.69531,-0.0469 -1.36425,-0.2378 -2.0039,-0.58692 z"
                 style="fill:#ffffff;fill-opacity:1;fill-rule:nonzero;stroke:none"
                 id="path104-3-3" />
              <path
                 inkscape:connector-curvature="0"
                 d="m 476.72665,-585.33429 c 0.043,-0.0864 -0.007,-0.2334 -0.0351,-0.30909 0.74609,0.13526 1.5166,0.12256 2.30859,-0.0234 0.004,0.0132 -0.0371,0.0332 -0.11914,0.0596 -0.74023,0.22412 -1.45996,0.32031 -2.1543,0.27295 z"
                 style="fill:#ffffff;fill-opacity:1;fill-rule:nonzero;stroke:none"
                 id="path106-3-6" />
              <path
                 inkscape:connector-curvature="0"
                 d="m 464.46689,-573.63555 c 4.26074,-1.98731 8.75195,-3.57618 13.43066,-4.71534 -1.84472,-0.74023 -3.88769,-1.82715 -5.75879,-3.51807 -4.96191,3.01807 -9.90723,4.37647 -14.33008,6.188 2.12695,1.354 4.49512,1.93066 6.65821,2.04541 z"
                 style="fill:#ffffff;fill-opacity:1;fill-rule:nonzero;stroke:none"
                 id="path108-4-4" />
              <path
                 inkscape:connector-curvature="0"
                 d="m 477.89755,-578.35089 c 4.33301,-1.05517 8.82618,-1.72412 13.44532,-1.96582 -1.88379,-1.82129 -3.95899,-3.88526 -5.92969,-6.38965 -4.43457,1.18554 -8.88965,2.82715 -13.27442,4.8374 1.8711,1.69092 3.91407,2.77784 5.75879,3.51807 z"
                 style="fill:#ffffff;fill-opacity:1;fill-rule:nonzero;stroke:none"
                 id="path110-3-7" />
              <path
                 inkscape:connector-curvature="0"
                 d="m 491.34287,-580.31671 c 2.04883,-0.10742 4.08203,-0.12891 6.0957,-0.0679 -1.98144,-2.2876 -4.14844,-4.77003 -6.24023,-7.62257 -1.88672,0.34229 -3.81836,0.77539 -5.78516,1.30079 1.9707,2.50439 4.0459,4.56836 5.92969,6.38965 z"
                 style="fill:#ffffff;fill-opacity:1;fill-rule:nonzero;stroke:none"
                 id="path112-1-3" />
              <path
                 inkscape:connector-curvature="0"
                 d="m 497.43857,-580.38458 c 6.1543,0.18603 12.13184,1.14258 17.83497,2.77979 -2.19141,-3.03419 -4.55958,-6.1211 -6.94532,-9.35792 -6.23535,-2.51368 -11.37012,-2.20557 -17.12988,-1.04444 2.09179,2.85254 4.25879,5.33497 6.24023,7.62257 z"
                 style="fill:#ffffff;fill-opacity:1;fill-rule:nonzero;stroke:none"
                 id="path114-6-3" />
              <path
                 inkscape:connector-curvature="0"
                 d="m 515.27354,-577.60479 c 8.16601,2.34375 15.76953,6.0835 22.52246,10.95362 -2.18359,-2.44336 -4.52734,-4.73682 -7.01465,-6.86475 -6.78027,-5.41212 -14.09278,-10.81007 -22.45313,-13.44679 2.38574,3.23682 4.75391,6.32373 6.94532,9.35792 z"
                 style="fill:#ffffff;fill-opacity:1;fill-rule:nonzero;stroke:none"
                 id="path116-7-9" />
              <path
                 inkscape:connector-curvature="0"
                 d="m 457.80868,-575.68096 c 4.42285,-1.81153 9.36817,-3.16993 14.33008,-6.188 -1.72461,-1.61328 -1.55273,-3.03955 -0.61914,-4.37647 -4.57324,4.80177 -9.92188,5.83399 -13.83594,7.30519 -1.39062,0.97998 -1.81445,2.02539 0.125,3.25928 z"
                 style="fill:#ffffff;fill-opacity:1;fill-rule:nonzero;stroke:none"
                 id="path118-9-7" />
              <path
                 inkscape:connector-curvature="0"
                 d="m 457.68368,-578.94024 c 3.91406,-1.4712 9.2627,-2.50342 13.83594,-7.30519 0.93457,-1.33691 2.63086,-2.5835 3.95606,-3.8374 -4.18555,6.58496 -8.70899,7.14747 -12.11524,8.27881 -1.92871,0.97022 -4.28613,1.88379 -5.67676,2.86378 z"
                 style="fill:#ffffff;fill-opacity:1;fill-rule:nonzero;stroke:none"
                 id="path120-4-1" />
              <path
                 inkscape:connector-curvature="0"
                 d="m 472.13876,-581.86896 c 4.38477,-2.01025 8.83985,-3.65186 13.27442,-4.8374 -3.74121,-4.96681 -1.63281,-9.19728 -0.78809,-13.26808 -2.79785,2.84131 -5.91113,6.19971 -9.14941,9.89161 -2.65137,2.50781 -6.78516,4.98731 -3.33692,8.21387 z"
                 style="fill:#ffffff;fill-opacity:1;fill-rule:nonzero;stroke:none"
                 id="path122-3-7" />
              <path
                 inkscape:connector-curvature="0"
                 d="m 485.41318,-586.70636 c 1.9668,-0.5254 3.89844,-0.9585 5.78516,-1.30079 -4.03614,-5.71094 -2.98536,-10.68946 -3.10254,-15.42579 -1.06739,1.04297 -2.2295,2.19922 -3.47071,3.4585 -0.84472,4.0708 -2.95312,8.30127 0.78809,13.26808 z"
                 style="fill:#ffffff;fill-opacity:1;fill-rule:nonzero;stroke:none"
                 id="path124-4-1" />
              <path
                 inkscape:connector-curvature="0"
                 d="m 491.19834,-588.00715 c 5.75976,-1.16113 10.89453,-1.46924 17.12988,1.04444 -4.75293,-6.58546 -6.76855,-12.44875 -9.65918,-17.81984 -5.63965,-4.72657 -7.3252,-2.20118 -10.57324,1.34961 0.11718,4.73633 -0.9336,9.71485 3.10254,15.42579 z"
                 style="fill:#ffffff;fill-opacity:1;fill-rule:nonzero;stroke:none"
                 id="path126-6-1" />
              <path
                 inkscape:connector-curvature="0"
                 d="m 508.32822,-586.96271 c 8.36035,2.63672 15.67286,8.03467 22.45313,13.44679 -5.14648,-4.4043 -10.90527,-8.09962 -17.11914,-10.94435 -4.39746,-7.10645 -8.67774,-16.50734 -14.99317,-20.32228 2.89063,5.37109 4.90625,11.23438 9.65918,17.81984 z"
                 style="fill:#ffffff;fill-opacity:1;fill-rule:nonzero;stroke:none"
                 id="path128-9-1" />
              <path
                 inkscape:connector-curvature="0"
                 d="m 463.36044,-581.80402 c 3.40625,-1.13134 7.92969,-1.69385 12.11524,-8.27881 1.64941,-1.96924 9.18359,-4.16993 10.625,-5.22706 -2.6709,9.88771 -6.02539,9.51564 -7.68164,9.82276 -2.51465,0.58887 -12.44727,2.36866 -15.0586,3.68311 z"
                 style="fill:#ffffff;fill-opacity:1;fill-rule:nonzero;stroke:none"
                 id="path130-4-5" />
              <path
                 inkscape:connector-curvature="0"
                 d="m 475.47568,-590.08283 c 3.23828,-3.6919 6.35156,-7.0503 9.14941,-9.89161 0.0899,-3.58741 4.73047,-7.18654 4.50293,-9.68898 -0.5039,4.30274 -1.61035,9.17726 -3.02734,14.35353 -1.44141,1.05713 -8.97559,3.25782 -10.625,5.22706 z"
                 style="fill:#ffffff;fill-opacity:1;fill-rule:nonzero;stroke:none"
                 id="path132-0-5" />
              <path
                 inkscape:connector-curvature="0"
                 d="m 484.62509,-599.97444 c 1.24121,-1.25928 2.40332,-2.41553 3.47071,-3.4585 -0.75782,-4.27735 2.44238,-8.47023 1.31836,-11.58351 0.043,1.65674 -0.0615,3.44971 -0.28614,5.35303 0.22754,2.50244 -4.41308,6.10157 -4.50293,9.68898 z"
                 style="fill:#ffffff;fill-opacity:1;fill-rule:nonzero;stroke:none"
                 id="path134-4-5" />
              <path
                 inkscape:connector-curvature="0"
                 d="m 488.0958,-603.43294 c 3.24804,-3.55079 4.93359,-6.07618 10.57324,-1.34961 -3.18457,-5.02442 -4.2168,-9.66994 -7.90918,-13.29787 -4.10547,-7.08106 -1.49317,-2.60547 -1.3457,3.06397 1.12402,3.11328 -2.07618,7.30616 -1.31836,11.58351 z"
                 style="fill:#ffffff;fill-opacity:1;fill-rule:nonzero;stroke:none"
                 id="path136-9-0" />
              <path
                 inkscape:connector-curvature="0"
                 d="m 498.66904,-604.78255 c 6.31543,3.81494 10.59571,13.21583 14.99317,20.32228 -6.03418,-2.76221 -12.49805,-4.72266 -19.24805,-5.75147 -0.72071,-9.04249 -0.68555,-22.61965 -3.6543,-27.86868 3.69238,3.62793 4.72461,8.27345 7.90918,13.29787 z"
                 style="fill:#ffffff;fill-opacity:1;fill-rule:nonzero;stroke:none"
                 id="path138-3-6" />
              <path
                 inkscape:connector-curvature="0"
                 d="m 478.41904,-585.48713 c 1.65625,-0.30712 5.01074,0.0649 7.68164,-9.82276 0.47461,-0.30859 0.80957,-0.59668 0.96094,-0.85742 -2.792,10.53468 -6.32129,10.16895 -8.06153,10.5005 0.01,0.0288 -0.20117,0.0908 -0.58105,0.17968 z"
                 style="fill:#ffffff;fill-opacity:1;fill-rule:nonzero;stroke:none"
                 id="path140-1-7" />
              <path
                 inkscape:connector-curvature="0"
                 d="m 486.10068,-595.30989 c 1.41699,-5.17627 2.52344,-10.05079 3.02734,-14.35353 0.46387,-0.66455 0.81153,-1.31152 1.00977,-1.94141 -0.48242,4.65968 -1.6084,9.89991 -3.07617,15.43752 -0.15137,0.26074 -0.48633,0.54883 -0.96094,0.85742 z"
                 style="fill:#ffffff;fill-opacity:1;fill-rule:nonzero;stroke:none"
                 id="path142-2-4" />
              <path
                 inkscape:connector-curvature="0"
                 d="m 489.12802,-609.66342 c 0.22461,-1.90332 0.3291,-3.69629 0.28614,-5.35303 0.43457,-0.81934 0.76367,-1.62452 0.95996,-2.41163 0.0654,1.81104 -0.0225,3.76026 -0.23633,5.82325 -0.19824,0.62989 -0.5459,1.27686 -1.00977,1.94141 z"
                 style="fill:#ffffff;fill-opacity:1;fill-rule:nonzero;stroke:none"
                 id="path144-4-7" />
              <path
                 inkscape:connector-curvature="0"
                 d="m 489.41416,-615.01645 c -0.14747,-5.66944 -2.75977,-10.14503 1.3457,-3.06397 0.37012,-1.08301 0.66894,-2.15918 0.88086,-3.22705 -4.3125,-7.25148 -1.48731,-2.29493 -1.2666,3.87939 -0.19629,0.78711 -0.52539,1.59229 -0.95996,2.41163 z"
                 style="fill:#ffffff;fill-opacity:1;fill-rule:nonzero;stroke:none"
                 id="path146-5-4" />
              <path
                 inkscape:connector-curvature="0"
                 d="m 490.75986,-618.08042 c 2.96875,5.24903 2.93359,18.82619 3.6543,27.86868 0.37304,-0.95752 0.72363,-1.91895 1.05371,-2.88379 -0.79102,-9.06837 -0.73438,-23.01223 -3.82715,-28.21194 -0.21192,1.06787 -0.51074,2.14404 -0.88086,3.22705 z"
                 style="fill:#ffffff;fill-opacity:1;fill-rule:nonzero;stroke:none"
                 id="path148-1-7" />
              <path
                 inkscape:connector-curvature="0"
                 d="m 470.78622,-591.27717 c 0.55371,1.1626 1.14551,2.13135 1.77149,2.9209 -1.41407,-3.70362 -2.6416,-7.4126 -3.61914,-11.11476 -0.66504,-1.16699 -1.24122,-2.43359 -1.68262,-3.76074 0.83301,4.02588 2.00781,8.0254 3.53027,11.9546 z"
                 style="fill:#ffffff;fill-opacity:1;fill-rule:nonzero;stroke:none"
                 id="path150-8-7" />
              <path
                 inkscape:connector-curvature="0"
                 d="m 467.25595,-603.23177 c 0.4414,1.32715 1.01758,2.59375 1.68262,3.76074 -0.97754,-3.70215 -1.70606,-7.39746 -2.12305,-11.07471 -0.48633,-1.51124 -0.85254,-3.10889 -1.0459,-4.79835 0.16016,4.03467 0.65234,8.08692 1.48633,12.11232 z"
                 style="fill:#ffffff;fill-opacity:1;fill-rule:nonzero;stroke:none"
                 id="path152-9-9" />
              <path
                 inkscape:connector-curvature="0"
                 d="m 472.55771,-588.35627 c 0.62597,0.78955 1.28711,1.3999 1.97754,1.84717 -1.17481,-3.20801 -2.34375,-6.48878 -3.37891,-9.79688 -0.79688,-0.92969 -1.55176,-1.99805 -2.21777,-3.16505 0.97754,3.70216 2.20507,7.41114 3.61914,11.11476 z"
                 style="fill:#ffffff;fill-opacity:1;fill-rule:nonzero;stroke:none"
                 id="path154-5-1" />
              <path
                 inkscape:connector-curvature="0"
                 d="m 468.93857,-599.47103 c 0.66601,1.167 1.42089,2.23536 2.21777,3.16505 -1.03613,-3.3086 -1.9375,-6.64405 -2.57422,-9.96095 -0.67383,-1.34278 -1.28027,-2.76758 -1.7666,-4.27881 0.41699,3.67725 1.14551,7.37256 2.12305,11.07471 z"
                 style="fill:#ffffff;fill-opacity:1;fill-rule:nonzero;stroke:none"
                 id="path156-6-2" />
              <path
                 inkscape:connector-curvature="0"
                 d="m 465.76962,-615.34409 c -0.31934,-8.06983 0.69336,-16.06935 2.97559,-23.64748 -0.16895,2.21631 -0.23731,4.44727 -0.20313,6.68604 -2.15137,7.1211 -2.56152,14.4048 -1.72656,21.75979 -0.48633,-1.51124 -0.85254,-3.10889 -1.0459,-4.79835 z"
                 style="fill:#ffffff;fill-opacity:1;fill-rule:nonzero;stroke:none"
                 id="path158-7-8" />
              <path
                 inkscape:connector-curvature="0"
                 d="m 466.81552,-610.54574 c -0.83496,-7.35499 -0.42481,-14.63869 1.72656,-21.75979 0.0342,2.23877 0.1709,4.48438 0.41016,6.72999 -1.86621,6.11524 -1.64551,12.67432 -0.37012,19.30861 -0.67383,-1.34278 -1.28027,-2.76758 -1.7666,-4.27881 z"
                 style="fill:#ffffff;fill-opacity:1;fill-rule:nonzero;stroke:none"
                 id="path160-1-9" />
              <path
                 inkscape:connector-curvature="0"
                 d="m 474.53525,-586.5091 c 0.69043,0.44727 1.41015,0.73047 2.15625,0.86572 -0.93555,-2.71142 -2.02051,-5.50391 -3.07227,-8.32666 -0.83105,-0.61475 -1.66797,-1.40626 -2.46289,-2.33594 1.03516,3.3081 2.2041,6.58887 3.37891,9.79688 z"
                 style="fill:#ffffff;fill-opacity:1;fill-rule:nonzero;stroke:none"
                 id="path162-0-0" />
              <path
                 inkscape:connector-curvature="0"
                 d="m 471.15634,-596.30598 c 0.79492,0.92968 1.63184,1.72119 2.46289,2.33594 -1.05078,-2.82325 -2.06836,-5.67628 -2.87012,-8.50978 -0.75293,-1.18359 -1.49316,-2.44434 -2.16699,-3.78711 0.63672,3.3169 1.53809,6.65235 2.57422,9.96095 z"
                 style="fill:#ffffff;fill-opacity:1;fill-rule:nonzero;stroke:none"
                 id="path164-3-2" />
              <path
                 inkscape:connector-curvature="0"
                 d="m 476.6915,-585.64338 c 0.74609,0.13526 1.5166,0.12256 2.30859,-0.0234 -0.82812,-2.48682 -1.88281,-4.80421 -2.9541,-7.02784 -0.77051,-0.22266 -1.59473,-0.66114 -2.42676,-1.27539 1.05176,2.82275 2.13672,5.61524 3.07227,8.32666 z"
                 style="fill:#ffffff;fill-opacity:1;fill-rule:nonzero;stroke:none"
                 id="path166-4-4" />
              <path
                 inkscape:connector-curvature="0"
                 d="m 473.61923,-593.97004 c 0.83203,0.61425 1.65625,1.05273 2.42676,1.27539 -1.07129,-2.22315 -2.1582,-4.35206 -3.05176,-6.46095 -0.72559,-1.03418 -1.49219,-2.14062 -2.24512,-3.32422 0.80176,2.8335 1.81934,5.68653 2.87012,8.50978 z"
                 style="fill:#ffffff;fill-opacity:1;fill-rule:nonzero;stroke:none"
                 id="path168-5-6" />
              <path
                 inkscape:connector-curvature="0"
                 d="m 468.58212,-606.26693 c 0.67383,1.34277 1.41406,2.60352 2.16699,3.78711 -0.80175,-2.83399 -1.38769,-5.64795 -1.57617,-8.39258 -0.59668,-1.75391 -1.13672,-3.48536 -1.58398,-5.24366 -0.0186,3.2334 0.35547,6.53174 0.99316,9.84913 z"
                 style="fill:#ffffff;fill-opacity:1;fill-rule:nonzero;stroke:none"
                 id="path170-9-8" />
              <path
                 inkscape:connector-curvature="0"
                 d="m 467.58896,-616.11606 c 0.44726,1.7583 0.9873,3.48975 1.58398,5.24366 -0.18848,-2.74415 0.0215,-5.41896 0.81152,-7.97365 -0.44921,-2.23779 -0.79296,-4.4834 -1.03222,-6.72949 -0.93262,3.05762 -1.34473,6.22608 -1.36328,9.45948 z"
                 style="fill:#ffffff;fill-opacity:1;fill-rule:nonzero;stroke:none"
                 id="path172-9-1" />
              <path
                 inkscape:connector-curvature="0"
                 d="m 470.74911,-602.47982 c 0.75293,1.1836 1.51953,2.29004 2.24512,3.32422 -0.89258,-2.10888 -1.5918,-4.19775 -1.88672,-6.34082 -0.68066,-1.84571 -1.33594,-3.62208 -1.93457,-5.37598 0.18848,2.74463 0.77442,5.55859 1.57617,8.39258 z"
                 style="fill:#ffffff;fill-opacity:1;fill-rule:nonzero;stroke:none"
                 id="path174-7-1" />
              <path
                 inkscape:connector-curvature="0"
                 d="m 469.17294,-610.8724 c 0.59863,1.7539 1.25391,3.53027 1.93457,5.37598 -0.29492,-2.14356 -0.18555,-4.34083 0.54004,-6.66749 -0.66113,-2.21436 -1.21484,-4.44434 -1.66309,-6.68214 -0.79003,2.55469 -1,5.2295 -0.81152,7.97365 z"
                 style="fill:#ffffff;fill-opacity:1;fill-rule:nonzero;stroke:none"
                 id="path176-5-3" />
              <path
                 inkscape:connector-curvature="0"
                 d="m 479.00009,-585.66681 c 1.74024,-0.33155 5.26953,0.0342 8.06153,-10.5005 -0.41895,0.0903 -1.09473,0.30664 -1.8545,0.59619 -2.99511,7.90284 -7.375,3.66211 -9.16113,2.87647 1.07129,2.22363 2.12598,4.54102 2.9541,7.02784 z"
                 style="fill:#ffffff;fill-opacity:1;fill-rule:nonzero;stroke:none"
                 id="path178-6-0" />
              <path
                 inkscape:connector-curvature="0"
                 d="m 476.04599,-592.69465 c 1.78613,0.78564 6.16602,5.02637 9.16113,-2.87647 -0.75879,0.28955 -1.60156,0.65283 -2.35449,1.03858 -3.44336,2.11474 -7.9707,-1.38038 -9.8584,-4.62306 0.89356,2.10889 1.98047,4.2378 3.05176,6.46095 z"
                 style="fill:#ffffff;fill-opacity:1;fill-rule:nonzero;stroke:none"
                 id="path180-6-8" />
              <path
                 inkscape:connector-curvature="0"
                 d="m 472.99423,-599.1556 c 1.8877,3.24268 6.41504,6.7378 9.8584,4.62306 -0.75293,0.38574 -1.41504,0.79345 -1.81152,1.1709 -3.8916,-3.67433 -7.94629,-6.43507 -9.9336,-12.13478 0.29492,2.14307 0.99414,4.23194 1.88672,6.34082 z"
                 style="fill:#ffffff;fill-opacity:1;fill-rule:nonzero;stroke:none"
                 id="path182-9-5" />
              <path
                 inkscape:connector-curvature="0"
                 d="m 471.10751,-605.49642 c 1.98731,5.69971 6.042,8.46045 9.9336,12.13478 -0.39649,0.37793 -0.5293,0.72558 -0.22364,0.99121 -4.0957,-6.30567 -7.13769,-12.97707 -9.16992,-19.79348 -0.72559,2.32666 -0.83496,4.52393 -0.54004,6.66749 z"
                 style="fill:#ffffff;fill-opacity:1;fill-rule:nonzero;stroke:none"
                 id="path184-0-9" />
              <path
                 inkscape:connector-curvature="0"
                 d="m 487.06162,-596.16731 c 0.005,-0.0195 0.01,-0.0391 0.0146,-0.0586 -0.36914,0.167 -0.99609,0.45997 -1.70605,0.82618 -0.0342,-0.0293 -0.12793,-0.1416 -0.16309,-0.17139 0.75977,-0.28955 1.43555,-0.50586 1.8545,-0.59619 z"
                 style="fill:#ffffff;fill-opacity:1;fill-rule:nonzero;stroke:none"
                 id="path186-2-2" />
              <path
                 inkscape:connector-curvature="0"
                 d="m 485.20712,-595.57112 c 0.0352,0.0298 0.12891,0.14209 0.16309,0.17139 -0.70996,0.3667 -1.50293,0.80713 -2.20703,1.26953 -0.10059,-0.13672 -0.21192,-0.26367 -0.31055,-0.40234 0.75293,-0.38575 1.5957,-0.74903 2.35449,-1.03858 z"
                 style="fill:#ffffff;fill-opacity:1;fill-rule:nonzero;stroke:none"
                 id="path188-8-8" />
              <path
                 inkscape:connector-curvature="0"
                 d="m 482.85263,-594.53254 c 0.0986,0.13867 0.20996,0.26562 0.31055,0.40234 -0.7041,0.4624 -1.31739,0.94678 -1.66602,1.40137 -0.16699,-0.24365 -0.29394,-0.38574 -0.45605,-0.63281 0.39648,-0.37745 1.05859,-0.78516 1.81152,-1.1709 z"
                 style="fill:#ffffff;fill-opacity:1;fill-rule:nonzero;stroke:none"
                 id="path190-1-1" />
              <path
                 inkscape:connector-curvature="0"
                 d="m 481.04111,-593.36164 c 0.16211,0.24707 0.28906,0.38916 0.45605,0.63281 -0.34863,0.4541 -0.43359,0.87891 -0.0801,1.22168 -0.19629,-0.29199 -0.40722,-0.5669 -0.59961,-0.86328 -0.30566,-0.26563 -0.17285,-0.61328 0.22364,-0.99121 z"
                 style="fill:#ffffff;fill-opacity:1;fill-rule:nonzero;stroke:none"
                 id="path192-9-9" />
              <path
                 inkscape:connector-curvature="0"
                 d="m 487.07626,-596.22591 c 2.11133,-7.96631 3.50879,-15.31544 3.29786,-21.20217 -0.0127,-0.27636 -0.3252,-0.48486 -0.80957,-0.64648 0.31836,6.37891 -2.00489,14.54005 -4.19434,22.67483 0.70996,-0.36621 1.33691,-0.65918 1.70605,-0.82618 z"
                 style="fill:#ffffff;fill-opacity:1;fill-rule:nonzero;stroke:none"
                 id="path194-8-3" />
              <path
                 inkscape:connector-curvature="0"
                 d="m 485.37021,-595.39973 c 2.18945,-8.13478 4.5127,-16.29592 4.19434,-22.67483 -0.48536,-0.16211 -1.14356,-0.27734 -1.84961,-0.36816 0.55468,7.46289 -2.18946,15.80812 -4.55176,24.31252 0.7041,-0.4624 1.49707,-0.90283 2.20703,-1.26953 z"
                 style="fill:#ffffff;fill-opacity:1;fill-rule:nonzero;stroke:none"
                 id="path196-8-6" />
              <path
                 inkscape:connector-curvature="0"
                 d="m 483.16318,-594.1302 c 2.3623,-8.5044 5.10644,-16.84963 4.55176,-24.31252 -0.70508,-0.0908 -1.45899,-0.15674 -2.13477,-0.21973 0.79102,8.54591 -1.54883,17.05959 -4.08301,25.93362 0.34863,-0.45459 0.96192,-0.93897 1.66602,-1.40137 z"
                 style="fill:#ffffff;fill-opacity:1;fill-rule:nonzero;stroke:none"
                 id="path198-8-9" />
              <path
                 inkscape:connector-curvature="0"
                 d="m 481.49716,-592.72883 c 2.53418,-8.87403 4.87403,-17.38771 4.08301,-25.93362 -0.67578,-0.0635 -1.27344,-0.12403 -1.66797,-0.2041 0.89844,9.03858 0.11719,18.3174 -2.49512,27.3594 -0.35351,-0.34277 -0.26855,-0.76758 0.0801,-1.22168 z"
                 style="fill:#ffffff;fill-opacity:1;fill-rule:nonzero;stroke:none"
                 id="path200-2-0" />
              <path
                 inkscape:connector-curvature="0"
                 d="m 490.37412,-617.42808 c -0.22071,-6.17432 -3.0459,-11.13087 1.2666,-3.87939 -0.32813,-1.99756 -0.99414,-3.98048 -1.91699,-5.94288 -3.02442,-4.88184 -0.4834,2.58887 -0.15918,9.17579 0.48437,0.16162 0.79687,0.37012 0.80957,0.64648 z"
                 style="fill:#ffffff;fill-opacity:1;fill-rule:nonzero;stroke:none"
                 id="path202-9-5" />
              <path
                 inkscape:connector-curvature="0"
                 d="m 489.56455,-618.07456 c -0.32422,-6.58692 -2.86524,-14.05763 0.15918,-9.17579 -0.92286,-1.96192 -2.10254,-3.90381 -3.45997,-5.81837 -0.1914,0.33204 0.90235,7.13234 1.45118,14.626 0.70605,0.0908 1.36425,0.20605 1.84961,0.36816 z"
                 style="fill:#ffffff;fill-opacity:1;fill-rule:nonzero;stroke:none"
                 id="path204-3-6" />
              <path
                 inkscape:connector-curvature="0"
                 d="m 487.71494,-618.44272 c -0.54883,-7.49366 -1.64258,-14.29396 -1.45118,-14.626 -2.71582,-3.8291 -6.14062,-7.54981 -9.63281,-11.11231 3.93164,7.91602 6.4043,16.50099 7.28125,25.31448 0.78906,0.15966 2.3916,0.24267 3.80274,0.42383 z"
                 style="fill:#ffffff;fill-opacity:1;fill-rule:nonzero;stroke:none"
                 id="path206-6-9" />
              <path
                 inkscape:connector-curvature="0"
                 d="m 491.64072,-621.30747 c 0.35644,0.59961 0.6709,1.31543 0.95019,2.12646 -0.51367,-2.48584 -1.37207,-4.96582 -2.50097,-7.42969 -0.1211,-0.48633 -0.16602,-0.33789 -0.36621,-0.63965 0.92285,1.9624 1.58886,3.94532 1.91699,5.94288 z"
                 style="fill:#ffffff;fill-opacity:1;fill-rule:nonzero;stroke:none"
                 id="path208-6-9" />
              <path
                 inkscape:connector-curvature="0"
                 d="m 489.72373,-627.25035 c 0.20019,0.30176 0.24511,0.15332 0.36621,0.63965 -1.12891,-2.46387 -2.52832,-4.91114 -4.12696,-7.33106 0.22461,0.229 0.1543,0.51953 0.30078,0.87304 1.35743,1.91456 2.53711,3.85645 3.45997,5.81837 z"
                 style="fill:#ffffff;fill-opacity:1;fill-rule:nonzero;stroke:none"
                 id="path210-6-5" />
              <path
                 inkscape:connector-curvature="0"
                 d="m 486.26376,-633.06872 c -0.14648,-0.35351 -0.0762,-0.64404 -0.30078,-0.87304 -3.19726,-4.83936 -7.18945,-9.56935 -11.39746,-14.10256 0.72754,1.26807 1.41602,2.55665 2.06543,3.86329 3.49219,3.5625 6.91699,7.28321 9.63281,11.11231 z"
                 style="fill:#ffffff;fill-opacity:1;fill-rule:nonzero;stroke:none"
                 id="path212-6-6" />
              <path
                 inkscape:connector-curvature="0"
                 d="m 492.59091,-619.18101 c 0.97364,2.83155 1.51172,6.82569 1.875,11.09376 0.47559,-4.31104 0.58594,-8.64747 0.37598,-12.98243 -0.94141,-3.07715 -3.42285,-3.79883 -4.75195,-5.54102 1.1289,2.46387 1.9873,4.94385 2.50097,7.42969 z"
                 style="fill:#ffffff;fill-opacity:1;fill-rule:nonzero;stroke:none"
                 id="path214-5-0" />
              <path
                 inkscape:connector-curvature="0"
                 d="m 490.08994,-626.6107 c 1.3291,1.74219 3.81054,2.46387 4.75195,5.54102 -0.20898,-4.33545 -0.73828,-8.66895 -1.54101,-12.97365 -2.21387,-0.45507 -5.22852,-0.55175 -7.3379,0.10157 1.59864,2.41992 2.99805,4.86719 4.12696,7.33106 z"
                 style="fill:#ffffff;fill-opacity:1;fill-rule:nonzero;stroke:none"
                 id="path216-3-6" />
              <path
                 inkscape:connector-curvature="0"
                 d="m 485.96298,-633.94176 c 2.10938,-0.65332 5.12403,-0.55664 7.3379,-0.10157 -1.60645,-8.60938 -4.30567,-17.10353 -7.72755,-25.26467 -4.0625,3.3584 -7.76367,7.12452 -11.00781,11.26368 4.20801,4.53321 8.2002,9.2632 11.39746,14.10256 z"
                 style="fill:#ffffff;fill-opacity:1;fill-rule:nonzero;stroke:none"
                 id="path218-4-0" />
              <path
                 inkscape:connector-curvature="0"
                 d="m 494.46591,-608.08725 c 0.43555,5.1128 0.62012,10.61916 1.00196,14.99172 2.82519,-8.26905 4.08008,-16.78908 3.88281,-25.18704 -1.31348,-5.11524 -3.98145,-10.63624 -6.0498,-15.76076 1.60546,8.60939 2.11718,17.33401 1.16503,25.95608 z"
                 style="fill:#ffffff;fill-opacity:1;fill-rule:nonzero;stroke:#ffffff"
                 id="path220-3-9" />
              <path
                 inkscape:connector-curvature="0"
                 d="m 493.30088,-634.04333 c 2.06835,5.12452 4.73632,10.64552 6.0498,15.76076 -0.19726,-8.39796 -1.84668,-16.67384 -4.82813,-24.4551 -2.24511,-5.85694 -5.24511,-11.43361 -8.94922,-16.57033 3.42188,8.16114 6.1211,16.65529 7.72755,25.26467 z"
                 style="fill:#ffffff;fill-opacity:1;fill-rule:nonzero;stroke:none"
                 id="path222-4-5" />
            </g>
          </g>
        </g>
      </g>
    </g>
  </g>
</svg>
