<?xml version="1.0" encoding="UTF-8" standalone="no"?>
<!-- Created with Inkscape (http://www.inkscape.org/) -->

<svg
   xmlns:dc="http://purl.org/dc/elements/1.1/"
   xmlns:cc="http://creativecommons.org/ns#"
   xmlns:rdf="http://www.w3.org/1999/02/22-rdf-syntax-ns#"
   xmlns:svg="http://www.w3.org/2000/svg"
   xmlns="http://www.w3.org/2000/svg"
   xmlns:sodipodi="http://sodipodi.sourceforge.net/DTD/sodipodi-0.dtd"
   xmlns:inkscape="http://www.inkscape.org/namespaces/inkscape"
   width="65.876366"
   height="53.973946"
   id="svg2"
   version="1.1"
   inkscape:version="0.48.4 r9939"
   sodipodi:docname="logo-sq.svg"
   inkscape:export-filename="/home/usr3/Insync/info@yveq.com/img/drawing-1.png"
   inkscape:export-xdpi="300.01154"
   inkscape:export-ydpi="300.01154">
  <defs
     id="defs4" />
  <sodipodi:namedview
     id="base"
     pagecolor="#ffffff"
     bordercolor="#666666"
     borderopacity="1.0"
     inkscape:pageopacity="0.0"
     inkscape:pageshadow="2"
     inkscape:zoom="9.7683271"
     inkscape:cx="13.738524"
     inkscape:cy="27.537947"
     inkscape:document-units="px"
     inkscape:current-layer="layer1"
     showgrid="false"
     showguides="true"
     inkscape:guide-bbox="true"
     inkscape:window-width="1301"
     inkscape:window-height="744"
     inkscape:window-x="65"
     inkscape:window-y="24"
     inkscape:window-maximized="1"
     fit-margin-top="0"
     fit-margin-left="0"
     fit-margin-right="0"
     fit-margin-bottom="0" />
  <metadata
     id="metadata7">
    <rdf:RDF>
      <cc:Work
         rdf:about="">
        <dc:format>image/svg+xml</dc:format>
        <dc:type
           rdf:resource="http://purl.org/dc/dcmitype/StillImage" />
        <dc:title />
      </cc:Work>
    </rdf:RDF>
  </metadata>
  <g
     inkscape:label="Layer 1"
     inkscape:groupmode="layer"
     id="layer1"
     transform="translate(-193.43456,-96.396702)">
    <path
       inkscape:connector-curvature="0"
       id="path22"
       style="fill:#ce1e25;fill-opacity:1;fill-rule:nonzero;stroke:none"
       d="m 211.08187,112.28275 -2.54689,1.28253 0.34294,0.35925 0.24486,-0.10275 0,0.51337 1.54054,0.1037 0.0529,-0.51205 -1.10363,-0.0535 1.32237,-0.97489 2.05705,0 1.3713,0.92339 -1.51819,0.0515 0,0.61539 1.61604,0.15424 0.24497,-0.76963 0.63672,-0.0515 0.049,-0.30776 -2.44892,-1.12876 -1.86112,-0.10251" />
    <path
       inkscape:connector-curvature="0"
       id="path24"
       style="fill:none;stroke:#100f0d;stroke-width:0.21825342;stroke-linecap:butt;stroke-linejoin:miter;stroke-miterlimit:4;stroke-opacity:1;stroke-dasharray:none"
       d="m 211.08187,112.28275 -2.54689,1.28253 0.34294,0.35925 0.24486,-0.10275 0,0.51337 1.54054,0.1037 0.0529,-0.51205 -1.10363,-0.0535 1.32237,-0.97489 2.05705,0 1.3713,0.92339 -1.51819,0.0515 0,0.61539 1.61604,0.15424 0.24497,-0.76963 0.63672,-0.0515 0.049,-0.30776 -2.44892,-1.12876 -1.86112,-0.10251 z" />
    <path
       inkscape:connector-curvature="0"
       id="path26"
       style="fill:#ce1e25;fill-opacity:1;fill-rule:nonzero;stroke:none"
       d="m 238.28878,112.03258 -2.54677,1.28264 0.3427,0.35914 0.24486,-0.10251 0,0.51301 1.42022,0.10263 0,-0.51313 -0.93039,-0.0513 1.32248,-0.975 2.05694,0 1.37141,0.92375 -1.51807,0.0512 0,0.61576 1.6157,0.15376 0.34316,-0.92364 0.73457,0.0513 -0.0491,-0.56427 -2.39988,-0.97464 -2.00778,0.0512" />
    <path
       inkscape:connector-curvature="0"
       id="path28"
       style="fill:none;stroke:#100f0d;stroke-width:0.21825342;stroke-linecap:butt;stroke-linejoin:miter;stroke-miterlimit:4;stroke-opacity:1;stroke-dasharray:none"
       d="m 238.28878,112.03258 -2.54677,1.28264 0.3427,0.35914 0.24486,-0.10251 0,0.51301 1.42022,0.10263 0,-0.51313 -0.93039,-0.0513 1.32248,-0.975 2.05694,0 1.37141,0.92375 -1.51807,0.0512 0,0.61576 1.6157,0.15376 0.34316,-0.92364 0.73457,0.0513 -0.0491,-0.56427 -2.39988,-0.97464 -2.00778,0.0512 z" />
    <path
       inkscape:connector-curvature="0"
       id="path30"
       style="fill:#ce1e25;fill-opacity:1;fill-rule:nonzero;stroke:none"
       d="m 200.2579,113.66802 0,0.92364 1.02851,0.0381 21.23157,1.42386 20.42389,0 5.87704,-0.61564 1.91484,-1.41633 1.53814,-0.0459 0.14655,-0.84669 c 0,0 -31.59005,2.69384 -52.16054,0.53893" />
    <path
       inkscape:connector-curvature="0"
       id="path32"
       style="fill:none;stroke:#100f0d;stroke-width:0.21825342;stroke-linecap:butt;stroke-linejoin:miter;stroke-miterlimit:4;stroke-opacity:1;stroke-dasharray:none"
       d="m 200.2579,113.66802 0,0.92364 1.02851,0.0381 21.23157,1.42386 20.42389,0 5.87704,-0.61564 1.91484,-1.41633 1.53814,-0.0459 0.14655,-0.84669 c 0,0 -31.59005,2.69384 -52.16054,0.53893 z" />
    <path
       inkscape:connector-curvature="0"
       id="path34"
       style="fill:#ed1c24;fill-opacity:1;fill-rule:nonzero;stroke:none"
       d="m 200.99252,114.51448 0,3.54006 49.66299,0.0772 0.0782,-4.11006 c 0,0 -22.58952,2.07761 -49.74123,0.49282" />
    <path
       inkscape:connector-curvature="0"
       id="path36"
       style="fill:none;stroke:#100f0d;stroke-width:0.21825342;stroke-linecap:butt;stroke-linejoin:miter;stroke-miterlimit:4;stroke-opacity:1;stroke-dasharray:none"
       d="m 200.99252,114.51448 0,3.54006 49.66299,0.0772 0.0782,-4.11006 c 0,0 -22.58952,2.07761 -49.74123,0.49282 z" />
    <path
       inkscape:connector-curvature="0"
       id="path38"
       style="fill:#cccccc;fill-opacity:1;fill-rule:nonzero;stroke:none"
       d="m 242.09667,126.32806 -0.80836,21.08704 3.56349,0.15416 -0.2574,-21.2412" />
    <path
       inkscape:connector-curvature="0"
       id="path40"
       style="fill:#000000;stroke:#100f0d;stroke-width:0.21825342;stroke-linecap:butt;stroke-linejoin:miter;stroke-miterlimit:4;stroke-opacity:1;stroke-dasharray:none"
       d="m 242.09667,126.32806 -0.80836,21.08704 3.56349,0.15416 -0.2574,-21.2412" />
    <path
       inkscape:connector-curvature="0"
       id="path42"
       style="fill:#000000;fill-opacity:1;fill-rule:nonzero;stroke:none"
       d="m 241.17825,125.63524 0.0367,1.2124 4.11445,0.019 0.0364,-1.07739 -4.18756,-0.154" />
    <path
       inkscape:connector-curvature="0"
       id="path44"
       style="fill:#000000;stroke:#100f0d;stroke-width:0.21825342000000000;stroke-linecap:butt;stroke-linejoin:miter;stroke-miterlimit:4;stroke-opacity:1;stroke-dasharray:none"
       d="m 241.17825,125.63524 0.0367,1.2124 4.11445,0.019 0.0364,-1.07739 -4.18756,-0.154 z" />
    <path
       inkscape:connector-curvature="0"
       id="path46"
       style="fill:#d40000;fill-opacity:1;fill-rule:nonzero;stroke:none"
       d="m 240.17419,125.36607 2.9879,-0.87226 3.37931,0.84669 c 0,0 -0.88169,0.74359 -1.2244,0.74359 -0.34283,0 -4.11411,0 -4.11411,0 0,0 -1.0287,-0.48708 -1.0287,-0.71802" />
    <path
       inkscape:connector-curvature="0"
       id="path48"
       style="fill:#cccccc;fill-opacity:1;fill-rule:nonzero;stroke:none"
       d="m 241.82729,141.25174 1.11458,-0.20516 0.10982,2.5397 -1.12027,0.36561 -0.10413,-2.70015" />
    <path
       inkscape:connector-curvature="0"
       id="path50"
       style="fill:#cccccc;stroke:#100f0d;stroke-width:0.21825342;stroke-linecap:butt;stroke-linejoin:miter;stroke-miterlimit:4;stroke-opacity:1;stroke-dasharray:none"
       d="m 241.82729,141.25174 1.11458,-0.20516 0.10982,2.5397 -1.12027,0.36561 -0.10413,-2.70015 z" />
    <path
       inkscape:connector-curvature="0"
       id="path52"
       style="fill:#cccccc;fill-opacity:1;fill-rule:nonzero;stroke:none"
       d="m 241.41114,131.72793 1.50609,-0.34623 -0.0739,-2.03974 -1.61592,0.2313" />
    <path
       inkscape:connector-curvature="0"
       id="path54"
       style="fill:#cccccc;stroke:#100f0d;stroke-width:0.21825342;stroke-linecap:butt;stroke-linejoin:miter;stroke-miterlimit:4;stroke-opacity:1;stroke-dasharray:none"
       d="m 241.41114,131.72793 1.50609,-0.34623 -0.0739,-2.03974 -1.61592,0.2313" />
    <path
       inkscape:connector-curvature="0"
       id="path56"
       style="fill:#cccccc;fill-opacity:1;fill-rule:nonzero;stroke:none"
       d="m 213.35926,126.25088 0.0736,1.23139 0.80813,0.0771 -0.96722,20.29091 3.9671,-0.0512 -0.28158,-20.31673 1.10192,0 0.0734,-1.15445 -4.77535,-0.0769" />
    <path
       inkscape:connector-curvature="0"
       id="path58"
       style="fill:#000000;stroke:#100f0d;stroke-width:0.21825342;stroke-linecap:butt;stroke-linejoin:miter;stroke-miterlimit:4;stroke-opacity:1;stroke-dasharray:none"
       d="m 213.35926,126.25088 0.0736,1.23139 0.80813,0.0771 -0.96722,20.29091 3.9671,-0.0512 -0.28158,-20.31673 1.10192,0 0.0734,-1.15445 -4.77535,-0.0769 z" />
    <path
       inkscape:connector-curvature="0"
       id="path60"
       style="fill:#d40000;fill-opacity:1;fill-rule:nonzero;stroke:none"
       d="m 215.56321,124.87851 3.89377,1.15433 -1.17548,0.38482 -5.65693,0.15388 -1.39581,-0.0768" />
    <path
       inkscape:connector-curvature="0"
       id="path62"
       style="fill:#8e535b;fill-opacity:1;fill-rule:nonzero;stroke:none"
       d="m 236.80731,108.54999 -0.0737,1.65491 1.0287,0.0768 c 0,0 -1.43277,36.55624 -0.69797,38.78821 l 5.24066,-0.077 c 0,0 -0.39209,-21.80523 -1.494,-24.4735 l -0.51447,-14.23766 0.88169,-0.15387 0,-2.53961" />
    <path
       inkscape:connector-curvature="0"
       id="path64"
       style="fill:#000000;stroke:#100f0d;stroke-width:0.21825342;stroke-linecap:butt;stroke-linejoin:miter;stroke-miterlimit:4;stroke-opacity:1;stroke-dasharray:none"
       d="m 236.80731,108.54999 -0.0737,1.65491 1.0287,0.0768 c 0,0 -1.43277,36.55624 -0.69797,38.78821 l 5.24066,-0.077 c 0,0 -0.39209,-21.80523 -1.494,-24.4735 l -0.51447,-14.23766 0.88169,-0.15387 0,-2.53961" />
    <path
       inkscape:connector-curvature="0"
       id="path66"
       style="fill:#cccccc;fill-opacity:1;fill-rule:nonzero;stroke:none"
       d="m 209.84583,129.76298 5.51916,-0.0753 -0.0832,2.52778 -5.36143,0.13811 -0.0745,-2.59062" />
    <path
       inkscape:connector-curvature="0"
       id="path68"
       style="fill:#cccccc;stroke:#100f0d;stroke-width:0.21825342;stroke-linecap:butt;stroke-linejoin:miter;stroke-miterlimit:4;stroke-opacity:1;stroke-dasharray:none"
       d="m 209.84583,129.76298 5.51916,-0.0753 -0.0832,2.52778 -5.36143,0.13811 -0.0745,-2.59062 z" />
    <path
       inkscape:connector-curvature="0"
       id="path70"
       style="fill:#cccccc;fill-opacity:1;fill-rule:nonzero;stroke:none"
       d="m 209.50107,141.91396 5.62146,-0.41194 0,2.66803 -5.59078,0.40309 -0.0307,-2.65918" />
    <path
       inkscape:connector-curvature="0"
       id="path72"
       style="fill:#cccccc;stroke:#100f0d;stroke-width:0.21825342;stroke-linecap:butt;stroke-linejoin:miter;stroke-miterlimit:4;stroke-opacity:1;stroke-dasharray:none"
       d="m 209.50107,141.91396 5.62146,-0.41194 0,2.66803 -5.59078,0.40309 -0.0307,-2.65918 z" />
    <path
       inkscape:connector-curvature="0"
       id="path74"
       style="fill:#8e535b;fill-opacity:1;fill-rule:nonzero;stroke:none"
       d="m 210.19516,107.5058 0,3.11654 0.77129,0 c 0,0 -1.44918,12.97316 -1.74582,17.89897 -0.25181,4.18819 -0.25695,20.40618 -0.25695,20.40618 l 4.42706,-0.21155 c 0,0 0.15214,-38.03661 0,-38.0936 l 0.99175,-0.11529 0.11016,-3.23218" />
    <path
       inkscape:connector-curvature="0"
       id="path76"
       style="fill:#000000;stroke:#100f0d;stroke-width:0.21825342;stroke-linecap:butt;stroke-linejoin:miter;stroke-miterlimit:4;stroke-opacity:1;stroke-dasharray:none"
       d="m 210.19516,107.5058 0,3.11654 0.77129,0 c 0,0 -1.44918,12.97316 -1.74582,17.89897 -0.25181,4.18819 -0.25695,20.40618 -0.25695,20.40618 l 4.42706,-0.21155 c 0,0 0.15214,-38.03661 0,-38.0936 l 0.99175,-0.11529 0.11016,-3.23218" />
    <path
       inkscape:connector-curvature="0"
       id="path78"
       style="fill:#8e535b;fill-opacity:1;fill-rule:nonzero;stroke:none"
       d="m 197.40046,103.28607 0.92283,2.55741 1.81219,0.20525 0.63674,2.66816 c 0,0 15.80201,2.41882 50.10363,-0.51301 l 0.88169,-2.77079 1.98315,-0.38457 0.88227,-3.30936" />
    <path
       inkscape:connector-curvature="0"
       id="path80"
       style="fill:#d40000;stroke:#100f0d;stroke-width:0.21825342000000000;stroke-linecap:butt;stroke-linejoin:miter;stroke-miterlimit:4;stroke-opacity:1;stroke-dasharray:none"
       d="m 197.40046,103.28607 0.92283,2.55741 1.81219,0.20525 0.63674,2.66816 c 0,0 15.80201,2.41882 50.10363,-0.51301 l 0.88169,-2.77079 1.98315,-0.38457 0.88227,-3.30936" />
    <path
       inkscape:connector-curvature="0"
       id="path82"
       style="fill:#302223;fill-opacity:1;fill-rule:nonzero;stroke:none"
       d="m 195.22552,100.27695 -0.69801,3.07818 c 0,0 18.09706,2.07796 25.34574,1.41107 l -1.51819,1.02615 14.3995,-0.30776 -1.42068,-0.89795 c 0,0 21.57142,-1.35146 23.87676,-2.38585 0.17107,-0.0767 2.50217,-4.109336 2.50217,-4.109336 l -19.10573,4.032636 -16.75022,0.0767 -17.85217,-0.53857 -8.77917,-1.38527" />
    <path
       inkscape:connector-curvature="0"
       id="path84"
       style="fill:#000000;stroke:#100f0d;stroke-width:0.21825342;stroke-linecap:butt;stroke-linejoin:miter;stroke-miterlimit:4;stroke-opacity:1;stroke-dasharray:none"
       d="m 195.22552,100.27695 -0.69801,3.07818 c 0,0 18.09706,2.07796 25.34574,1.41107 l -1.51819,1.02615 14.3995,-0.30776 -1.42068,-0.89795 c 0,0 21.57142,-1.35146 23.87676,-2.38585 0.17107,-0.0767 2.50217,-4.109336 2.50217,-4.109336 l -19.10573,4.032636 -16.75022,0.0767 -17.85217,-0.53857 -8.77917,-1.38527 z" />
    <path
       inkscape:connector-curvature="0"
       id="path86"
       style="fill:#ed1c24;fill-opacity:1;fill-rule:nonzero;stroke:none"
       d="m 193.54369,98.091454 c 0,0 2.62961,2.215956 14.57503,3.185826 8.89972,0.72256 25.89685,0 31.29626,-0.46176 5.3993,-0.46164 17.58322,-2.693601 19.78682,-4.309691 l -0.39152,1.641776 c 0,0 -0.95536,1.949535 -17.24005,3.950685 -10.90397,1.33963 -35.86405,2.38536 -46.33246,-1.07763 -0.19277,-0.0636 -0.3429,-1.077279 -1.17544,-1.410843 l -0.51864,-1.518363" />
    <path
       inkscape:connector-curvature="0"
       id="path88"
       style="fill:none;stroke:#100f0d;stroke-width:0.21825342;stroke-linecap:butt;stroke-linejoin:miter;stroke-miterlimit:4;stroke-opacity:1;stroke-dasharray:none"
       d="m 193.54369,98.091454 c 0,0 2.62961,2.215956 14.57503,3.185826 8.89972,0.72256 25.89685,0 31.29626,-0.46176 5.3993,-0.46164 17.58322,-2.693601 19.78682,-4.309691 l -0.39152,1.641776 c 0,0 -0.95536,1.949535 -17.24005,3.950685 -10.90397,1.33963 -35.86405,2.38536 -46.33246,-1.07763 -0.19277,-0.0636 -0.3429,-1.077279 -1.17544,-1.410843 l -0.51864,-1.518363 z" />
    <path
       inkscape:connector-curvature="0"
       id="path90"
       style="fill:#cccccc;fill-opacity:1;fill-rule:nonzero;stroke:none"
       d="m 204.39645,124.5962 0.22033,1.15457 1.02861,0.154 -0.50192,24.35675 3.57536,0 -0.57559,-24.27993 1.10191,-0.154 0.36746,-1.15421 -5.21616,-0.0772" />
    <path
       inkscape:connector-curvature="0"
       id="path92"
       style="fill:#000000;stroke:#100f0d;stroke-width:0.21825342;stroke-linecap:butt;stroke-linejoin:miter;stroke-miterlimit:4;stroke-opacity:1;stroke-dasharray:none"
       d="m 204.39645,124.5962 0.22033,1.15457 1.02861,0.154 -0.50192,24.35675 3.57536,0 -0.57559,-24.27993 1.10191,-0.154 0.36746,-1.15421 -5.21616,-0.0772 z" />
    <path
       inkscape:connector-curvature="0"
       id="path94"
       style="fill:#d40000;fill-opacity:1;fill-rule:nonzero;stroke:none"
       d="m 210.76345,125.21207 -7.05271,0 -0.44086,-0.61587 3.7468,-0.9234 3.45287,1.00058 0.2939,0.53869" />
    <path
       inkscape:connector-curvature="0"
       id="path96"
       style="fill:#cccccc;fill-opacity:1;fill-rule:nonzero;stroke:none"
       d="m 206.98931,129.6275 -0.0981,2.71929 -0.41284,0.0648 -0.0471,-2.85011 0.55803,0.0661" />
    <path
       inkscape:connector-curvature="0"
       id="path98"
       style="fill:#cccccc;stroke:#100f0d;stroke-width:0.21825342;stroke-linecap:butt;stroke-linejoin:miter;stroke-miterlimit:4;stroke-opacity:1;stroke-dasharray:none"
       d="m 206.98931,129.6275 -0.0981,2.71929 -0.41284,0.0648 -0.0471,-2.85011 0.55803,0.0661 z" />
    <path
       inkscape:connector-curvature="0"
       id="path100"
       style="fill:#cccccc;fill-opacity:1;fill-rule:nonzero;stroke:none"
       d="m 205.95149,129.67553 -0.0195,2.66015 0.49587,0.0769 0,-2.84749 -0.47637,0.1104" />
    <path
       inkscape:connector-curvature="0"
       id="path102"
       style="fill:#cccccc;stroke:#100f0d;stroke-width:0.21825342;stroke-linecap:butt;stroke-linejoin:miter;stroke-miterlimit:4;stroke-opacity:1;stroke-dasharray:none"
       d="m 205.95149,129.67553 -0.0195,2.66015 0.49587,0.0769 0,-2.84749 -0.47637,0.1104 z" />
    <path
       inkscape:connector-curvature="0"
       id="path104"
       style="fill:#cccccc;fill-opacity:1;fill-rule:nonzero;stroke:none"
       d="m 207.10553,142.1915 -0.0336,2.684 -0.47717,0.0996 -0.047,-2.84986 0.5578,0.0662" />
    <path
       inkscape:connector-curvature="0"
       id="path106"
       style="fill:#cccccc;stroke:#100f0d;stroke-width:0.21825342;stroke-linecap:butt;stroke-linejoin:miter;stroke-miterlimit:4;stroke-opacity:1;stroke-dasharray:none"
       d="m 207.10553,142.1915 -0.0336,2.684 -0.47717,0.0996 -0.047,-2.84986 0.5578,0.0662 z" />
    <path
       inkscape:connector-curvature="0"
       id="path108"
       style="fill:#cccccc;fill-opacity:1;fill-rule:nonzero;stroke:none"
       d="m 206.0433,142.1432 0.005,2.75634 0.49587,0.077 0,-2.84771 -0.50089,0.0144" />
    <path
       inkscape:connector-curvature="0"
       id="path110"
       style="fill:#cccccc;stroke:#100f0d;stroke-width:0.21825342;stroke-linecap:butt;stroke-linejoin:miter;stroke-miterlimit:4;stroke-opacity:1;stroke-dasharray:none"
       d="m 206.0433,142.1432 0.005,2.75634 0.49587,0.077 0,-2.84771 -0.50089,0.0144 z" />
    <path
       inkscape:connector-curvature="0"
       id="path112"
       style="fill:#cccccc;fill-opacity:1;fill-rule:nonzero;stroke:none"
       d="m 234.76235,125.69318 c 0,0 -0.19571,23.39589 -0.29356,24.01149 -0.0983,0.61565 4.06484,0.0515 4.06484,0.0515 0,0 -1.12655,-23.24224 -0.73468,-23.96062" />
    <path
       inkscape:connector-curvature="0"
       id="path114"
       style="fill:#000000;stroke:#100f0d;stroke-width:0.21825342;stroke-linecap:butt;stroke-linejoin:miter;stroke-miterlimit:4;stroke-opacity:1;stroke-dasharray:none"
       d="m 234.76235,125.69318 c 0,0 -0.19571,23.39589 -0.29356,24.01149 -0.0983,0.61565 4.06484,0.0515 4.06484,0.0515 0,0 -1.12655,-23.24224 -0.73468,-23.96062" />
    <path
       inkscape:connector-curvature="0"
       id="path116"
       style="fill:#cccccc;fill-opacity:1;fill-rule:nonzero;stroke:none"
       d="m 233.92981,125.03239 0.098,1.07751 4.55467,0 0.0979,-1.12877 -4.75049,0.0513" />
    <path
       inkscape:connector-curvature="0"
       id="path118"
       style="fill:#000000;stroke:#100f0d;stroke-width:0.21825342000000000;stroke-linecap:butt;stroke-linejoin:miter;stroke-miterlimit:4;stroke-opacity:1;stroke-dasharray:none"
       d="m 233.92981,125.03239 0.098,1.07751 4.55467,0 0.0979,-1.12877 -4.75049,0.0513 z" />
    <path
       inkscape:connector-curvature="0"
       id="path120"
       style="fill:#d40000;fill-opacity:1;fill-rule:nonzero;stroke:none"
       d="m 232.7849,124.30779 c 0,0 0.93666,0.80775 1.19372,0.80775 0.2574,0 4.68377,-0.0381 4.68377,-0.0381 0,0 1.08823,-0.35149 1.34062,-0.61564 0.0551,-0.0578 -3.52632,-0.96198 -3.52632,-0.96198 l -3.69179,0.80798" />
    <path
       inkscape:connector-curvature="0"
       id="path122"
       style="fill:#cccccc;fill-opacity:1;fill-rule:nonzero;stroke:none"
       d="m 238.2029,141.85455 1.06553,-0.19208 0.12831,2.96289 -1.07763,0.31431 -0.11621,-3.08512" />
    <path
       inkscape:connector-curvature="0"
       id="path124"
       style="fill:#cccccc;stroke:#100f0d;stroke-width:0.21825342;stroke-linecap:butt;stroke-linejoin:miter;stroke-miterlimit:4;stroke-opacity:1;stroke-dasharray:none"
       d="m 238.2029,141.85455 1.06553,-0.19208 0.12831,2.96289 -1.07763,0.31431 -0.11621,-3.08512 z" />
    <path
       inkscape:connector-curvature="0"
       id="path126"
       style="fill:#cccccc;fill-opacity:1;fill-rule:nonzero;stroke:none"
       d="m 235.57664,142.22039 0.70389,-0.0289 0.0244,3.38963 -0.63672,0.0511 -0.0916,-3.41184" />
    <path
       inkscape:connector-curvature="0"
       id="path128"
       style="fill:#cccccc;stroke:#100f0d;stroke-width:0.21825342;stroke-linecap:butt;stroke-linejoin:miter;stroke-miterlimit:4;stroke-opacity:1;stroke-dasharray:none"
       d="m 235.57664,142.22039 0.70389,-0.0289 0.0244,3.38963 -0.63672,0.0511 -0.0916,-3.41184 z" />
    <path
       inkscape:connector-curvature="0"
       id="path130"
       style="fill:#cccccc;fill-opacity:1;fill-rule:nonzero;stroke:none"
       d="m 237.11296,142.07917 0.0799,3.20006 -0.88796,0.3019 -0.0244,-3.38963 0.83243,-0.11233" />
    <path
       inkscape:connector-curvature="0"
       id="path132"
       style="fill:#cccccc;stroke:#100f0d;stroke-width:0.21825342;stroke-linecap:butt;stroke-linejoin:miter;stroke-miterlimit:4;stroke-opacity:1;stroke-dasharray:none"
       d="m 237.11296,142.07917 0.0799,3.20006 -0.88796,0.3019 -0.0244,-3.38963 0.83243,-0.11233 z" />
    <path
       inkscape:connector-curvature="0"
       id="path134"
       style="fill:#cccccc;fill-opacity:1;fill-rule:nonzero;stroke:none"
       d="m 235.73288,130.54157 0.43771,-0.0576 0.0487,2.41141 -0.48641,0.0223 0,-2.37617" />
    <path
       inkscape:connector-curvature="0"
       id="path136"
       style="fill:#cccccc;stroke:#100f0d;stroke-width:0.21825342;stroke-linecap:butt;stroke-linejoin:miter;stroke-miterlimit:4;stroke-opacity:1;stroke-dasharray:none"
       d="m 235.73288,130.54157 0.43771,-0.0576 0.0487,2.41141 -0.48641,0.0223 0,-2.37617 z" />
    <path
       inkscape:connector-curvature="0"
       id="path138"
       style="fill:#cccccc;fill-opacity:1;fill-rule:nonzero;stroke:none"
       d="m 236.97222,130.37802 -0.009,2.33758 -0.74427,0.1798 -0.0487,-2.41141 0.80163,-0.10597" />
    <path
       inkscape:connector-curvature="0"
       id="path140"
       style="fill:#cccccc;stroke:#100f0d;stroke-width:0.21825342;stroke-linecap:butt;stroke-linejoin:miter;stroke-miterlimit:4;stroke-opacity:1;stroke-dasharray:none"
       d="m 236.97222,130.37802 -0.009,2.33758 -0.74427,0.1798 -0.0487,-2.41141 0.80163,-0.10597 z" />
    <path
       inkscape:connector-curvature="0"
       id="path142"
       style="fill:#cccccc;fill-opacity:1;fill-rule:nonzero;stroke:none"
       d="m 237.77443,130.27874 1.26124,-0.20549 0.0245,2.14224 -1.22452,0.28195" />
    <path
       inkscape:connector-curvature="0"
       id="path144"
       style="fill:#cccccc;stroke:#100f0d;stroke-width:0.21825342;stroke-linecap:butt;stroke-linejoin:miter;stroke-miterlimit:4;stroke-opacity:1;stroke-dasharray:none"
       d="m 237.77443,130.27874 1.26124,-0.20549 0.0245,2.14224 -1.22452,0.28195" />
    <path
       inkscape:connector-curvature="0"
       id="path146"
       style="fill:#100f0d;fill-opacity:1;fill-rule:nonzero;stroke:none"
       d="m 222.73878,107.8451 0.66113,8.42668 4.94653,0.0385 0.78338,-8.58068 -6.39104,0.11553" />
    <path
       inkscape:connector-curvature="0"
       id="path148"
       style="fill:#ffffff;fill-opacity:1;fill-rule:nonzero;stroke:none"
       d="m 225.55333,110.20729 c 0,0 -0.14872,0.16726 -0.4563,0.37299 -0.16172,0.10848 -0.37476,0.20944 -0.61836,0.34683 -0.27006,0.15256 0.66215,-0.11768 0.70606,-0.13739 0.0437,-0.0196 0.0373,0.49091 0.0373,0.49091 0,0 -0.91841,0.30106 -0.98068,0.31409 -0.0626,0.013 -0.15898,0.17227 0.20608,0.11768 0.0875,-0.0129 0.65611,-0.21589 0.70595,-0.20932 0.0501,0.007 -0.87462,1.36783 -0.93701,1.39399 -0.0626,0.0262 -0.0937,0.15699 0.0749,0.0262 0.16856,-0.13094 0.9183,-0.89006 0.9183,-0.93582 0,-0.0456 -0.006,0.98815 -0.0688,1.22374 -0.0625,0.2356 0.25011,0.70035 0.31876,0.35997 0.0687,-0.34037 0.0375,-1.60342 0.0375,-1.60342 l 0.39346,0.34037 c 0,0 0.24372,0.12425 0.15625,-0.20943 -0.0875,-0.33381 -0.20004,-0.1896 -0.2687,-0.1896 -0.0686,0 -0.29367,-0.0787 -0.29367,-0.0787 l 0.0127,-0.40584 c 0,0 0.47478,-0.0851 0.57446,-0.0588 0.10001,0.0264 0.23744,-0.14384 0.13138,-0.1767 -0.10607,-0.0327 -0.31865,-0.1307 -0.42483,-0.0719 -0.1754,0.0971 -0.0937,0.11111 -0.28101,0.10478 l 0.0311,-0.2816 c 0,0 0.0186,-0.19629 -0.0999,-0.24205 -0.11872,-0.0458 0.40612,-0.13751 0.47478,-0.22891 0.0688,-0.0916 -0.0937,-0.28816 -0.17506,-0.30787 -0.0812,-0.0196 -0.23733,-0.22246 -0.17472,0.0459" />
    <path
       inkscape:connector-curvature="0"
       id="path150"
       style="fill:#ffffff;fill-opacity:1;fill-rule:nonzero;stroke:none"
       d="m 226.41518,111.77822 0.1689,0.77848 0.006,0.20286 c 0,0 -0.0565,0.32747 -0.24976,-0.006 -0.19399,-0.33392 -0.10629,-0.87704 -0.20038,-0.98182 -0.0934,-0.10477 -0.16833,-0.26833 0.0314,-0.24216 0,0 0.11257,0.0852 0.13139,0.11122 0.0337,0.0472 0.11222,0.13775 0.11222,0.13775" />
    <path
       inkscape:connector-curvature="0"
       id="path152"
       style="fill:#ffffff;fill-opacity:1;fill-rule:nonzero;stroke:none"
       d="m 226.24023,111.62733 c 0,0 1.0433,-0.18315 1.14332,-0.24862 0.10013,-0.0653 0.1941,-0.0523 0.26253,-0.007 0.0688,0.0459 0.21851,0.15065 0.21851,0.15065 0,0 0.11291,-0.0327 -0.0125,0.17013 -0.12477,0.20286 -0.2996,0.72639 -0.2996,0.75255 0,0.0264 0.11861,0.16356 0.0874,0.18315 -0.0315,0.0197 -0.0439,0.0656 -0.10641,0.0459 -0.0623,-0.0196 -0.81839,-0.0392 -0.94305,0.0851 -0.12522,0.12449 -0.10024,-0.19629 -0.10024,-0.19629 l 0.78726,-0.13739 0.11883,-0.83774 -0.98102,0.19008" />
    <path
       inkscape:connector-curvature="0"
       id="path154"
       style="fill:#100f0d;fill-opacity:1;fill-rule:nonzero;stroke:none"
       d="m 223.73326,116.21623 c 0,0.17013 -0.12317,0.30776 -0.27531,0.30776 -0.15236,0 -0.27553,-0.13763 -0.27553,-0.30776 0,-0.17001 0.12317,-0.30788 0.27553,-0.30788 0.15214,0 0.27531,0.13787 0.27531,0.30788" />
    <path
       inkscape:connector-curvature="0"
       id="path156"
       style="fill:#100f0d;fill-opacity:1;fill-rule:nonzero;stroke:none"
       d="m 223.01409,107.8451 c 0,0.17001 -0.12317,0.30788 -0.27531,0.30788 -0.15214,0 -0.27554,-0.13787 -0.27554,-0.30788 0,-0.17012 0.1234,-0.30799 0.27554,-0.30799 0.15214,0 0.27531,0.13787 0.27531,0.30799" />
    <path
       inkscape:connector-curvature="0"
       id="path158"
       style="fill:#100f0d;fill-opacity:1;fill-rule:nonzero;stroke:none"
       d="m 229.25562,107.6702 c 0,0.16989 -0.12329,0.30788 -0.27554,0.30788 -0.15214,0 -0.27542,-0.13799 -0.27542,-0.30788 0,-0.16989 0.12328,-0.30788 0.27542,-0.30788 0.15225,0 0.27554,0.13799 0.27554,0.30788" />
    <path
       inkscape:connector-curvature="0"
       id="path160"
       style="fill:#100f0d;fill-opacity:1;fill-rule:nonzero;stroke:none"
       d="m 228.49344,116.27178 c 0,0.17001 -0.12351,0.30788 -0.27565,0.30788 -0.15213,0 -0.2753,-0.13787 -0.2753,-0.30788 0,-0.16988 0.12317,-0.30775 0.2753,-0.30775 0.15214,0 0.27565,0.13787 0.27565,0.30775" />
    <path
       inkscape:connector-curvature="0"
       id="path162"
       style="fill:#cccccc;fill-opacity:1;fill-rule:nonzero;stroke:none"
       d="m 208.23208,129.72881 1.89841,0.0597 0,2.5089 -1.83477,0.11923 -0.0636,-2.68787" />
    <path
       inkscape:connector-curvature="0"
       id="path164"
       style="fill:#cccccc;stroke:#100f0d;stroke-width:0.21825342;stroke-linecap:butt;stroke-linejoin:miter;stroke-miterlimit:4;stroke-opacity:1;stroke-dasharray:none"
       d="m 208.23208,129.72881 1.89841,0.0597 0,2.5089 -1.83477,0.11923 -0.0636,-2.68787 z" />
    <path
       inkscape:connector-curvature="0"
       id="path166"
       style="fill:#cccccc;fill-opacity:1;fill-rule:nonzero;stroke:none"
       d="m 208.52449,142.06292 1.72028,-0.17421 -0.0287,2.65456 -1.6271,0.23978 -0.11211,-2.59934" />
    <path
       inkscape:connector-curvature="0"
       id="path168"
       style="fill:#cccccc;stroke:#100f0d;stroke-width:0.21825342;stroke-linecap:butt;stroke-linejoin:miter;stroke-miterlimit:4;stroke-opacity:1;stroke-dasharray:none"
       d="m 208.52449,142.06292 1.72028,-0.17421 -0.0287,2.65456 -1.6271,0.23978 -0.11211,-2.59934" />
  </g>
</svg>
